<?xml version="1.0" encoding="utf-8"?>
<!-- Generator: Adobe Illustrator 17.0.0, SVG Export Plug-In . SVG Version: 6.00 Build 0)  -->
<!DOCTYPE svg PUBLIC "-//W3C//DTD SVG 1.1//EN" "http://www.w3.org/Graphics/SVG/1.1/DTD/svg11.dtd">
<svg version="1.1" xmlns="http://www.w3.org/2000/svg" xmlns:xlink="http://www.w3.org/1999/xlink" x="0px" y="0px"
	 width="66.183px" height="92.209px" viewBox="0 0 66.183 92.209" enable-background="new 0 0 66.183 92.209" xml:space="preserve">
<g id="Calque_2" display="none">
	<rect x="-9.682" y="-12.22" display="inline" width="85.04" height="113.386"/>
</g>
<g id="Calque_1">
	<path fill="none" stroke="#D6AD00" d="M42.628,19.451"/>
	<g>
		<path fill="none" stroke="#FFFFFF" d="M31.884,16.119"/>
		<g>
			<polygon fill="none" stroke="#FFFFFF" points="43.857,21.875 40.332,11.72 36.592,23.525 			"/>
			<polyline fill="none" stroke="#FFFFFF" points="44.021,22.078 37.795,50.251 31.876,50.251 			"/>
			<line fill="none" stroke="#FFFFFF" x1="36.592" y1="23.525" x2="31.876" y2="50.251"/>
			<polyline fill="none" stroke="#FFFFFF" points="40.459,11 30.108,17.816 29.624,21.715 36.592,23.525 			"/>
			<polyline fill="none" stroke="#FFFFFF" points="29.632,21.715 27.942,31.052 28.15,33.266 			"/>
		</g>
		<polyline fill="none" stroke="#FFFFFF" points="17.876,1.529 25.996,10.387 30.124,54.23 27.865,56.057 23.634,13.758 
			17.876,1.529 		"/>
		<polyline fill="none" stroke="#FFFFFF" points="27.865,56.057 20.381,60.574 20.381,60.574 15.255,60.297 12.752,13.525 
			12.84,13.32 17.876,1.529 16.9,15.614 23.634,13.758 25.996,10.387 		"/>
		<polyline fill="none" stroke="#FFFFFF" points="20.381,60.574 16.783,15.859 12.752,13.525 		"/>
		<polyline fill="none" stroke="#FFFFFF" points="58.277,0.578 55.165,1.547 56.514,7.863 61.292,9.018 62.173,5.376 58.277,0.578 
					"/>
		<line fill="none" stroke="#FFFFFF" x1="55.023" y1="1.484" x2="43.179" y2="19.923"/>
		<line fill="none" stroke="#FFFFFF" x1="56.514" y1="7.863" x2="41.304" y2="33.817"/>
		<line fill="none" stroke="#FFFFFF" x1="61.223" y1="9.344" x2="38.398" y2="47.432"/>
	</g>
</g>
<g id="Calque_3">
	<g>
		<path fill="#FFFFFF" d="M55.504,42.541l-0.007-0.109L55.504,42.541z"/>
		<path fill="#FFFFFF" d="M49.576,43.215l0.053-0.066L49.576,43.215z"/>
		<path fill="#FFFFFF" d="M59.041,42.247l-0.005,0.026c0.056-0.004,0.128-0.008,0.248-0.018L59.041,42.247z"/>
		<path fill="#FFFFFF" d="M37.318,46.668l0.072-0.035L37.318,46.668z"/>
		<path fill="#FFFFFF" d="M44.55,44.471l-0.074,0.102C44.525,44.565,44.558,44.545,44.55,44.471z"/>
		<path fill="#FFFFFF" d="M61.16,44.285l-0.116-0.141C61.052,44.211,61.096,44.275,61.16,44.285z"/>
		<path fill="#FFFFFF" d="M64.567,43.357l-0.012-0.035L64.567,43.357z"/>
		<path fill="#FFFFFF" d="M63.153,42.841l-0.093,0.075C63.1,42.908,63.154,42.904,63.153,42.841z"/>
		<path fill="#FFFFFF" d="M63.015,42.959l0.045-0.043L63.015,42.959z"/>
		<path fill="#FFFFFF" d="M0.087,73.123c-0.079,0.067-0.058,0.213-0.055,0.346L0.087,73.123z"/>
		<path fill="#FFFFFF" d="M26.944,51.674l-0.011-0.068L26.944,51.674z"/>
		<path fill="#FFFFFF" d="M0.957,74.176l-0.075,0.027L0.957,74.176z"/>
		<path fill="#FFFFFF" d="M59.402,44.963c-0.076,0.167-0.307,0.016-0.281,0.162C59.22,45.088,59.386,45.179,59.402,44.963z"/>
		<path fill="#FFFFFF" d="M27.764,57.875l-0.052,0.043L27.764,57.875z"/>
		<polygon fill="#FFFFFF" points="0.957,74.176 1.044,74.143 0.971,74.106 		"/>
		<polygon fill="#FFFFFF" points="16.765,57.968 16.768,57.965 16.771,57.928 		"/>
		<path fill="#FFFFFF" d="M16.105,58.133l0.081-0.12C16.119,58.043,16.103,58.085,16.105,58.133z"/>
		<path fill="#FFFFFF" d="M0.032,73.469L0,73.666L0.032,73.469z"/>
		<path fill="#FFFFFF" d="M10.75,62.404l0.038-0.055L10.75,62.404z"/>
		<path fill="#FFFFFF" d="M45.037,44.405L45.1,44.42L45.037,44.405z"/>
		<polygon fill="#FFFFFF" points="42.066,49.811 42.062,49.812 42.064,49.816 		"/>
		<path fill="#FFFFFF" d="M42.222,49.549c-0.084-0.006-0.146,0.135-0.156,0.262C42.134,49.784,42.191,49.729,42.222,49.549z"/>
		<path fill="#FFFFFF" d="M41.55,49.924l0.034,0.008L41.55,49.924z"/>
		<polygon fill="#FFFFFF" points="46.215,48.559 46.21,48.541 46.212,48.557 		"/>
		<path fill="#FFFFFF" d="M45.314,48.877l-0.086-0.043L45.314,48.877z"/>
		<polygon fill="#FFFFFF" points="39.499,51.229 39.498,51.221 39.494,51.225 		"/>
		<path fill="#FFFFFF" d="M31.867,56.133c0.736-0.531,1.65-1.31,2.493-1.626c0.034-0.37,0.284-0.507,0.511-0.696l0.211,0.363
			l0.154-0.225c0.142,0.07-0.13,0.15,0.094,0.219l-0.033-0.275c0.082,0.127,0.589-0.18,0.363,0.268l0.827-0.406
			c0.187-0.078-0.042-0.371,0.204-0.377c0.094,0.092-0.037,0.113,0.043,0.24c0.745,0.008,0.375-1.054,1.034-1.135l-0.026,0.072
			c0.054-0.146,0.248-0.215,0.227-0.27c-0.248-0.356-0.012,0.256-0.291,0.103c-0.131-0.331,0.143-0.271,0.02-0.513
			c0.19,0.058,0.189-0.162,0.297-0.233c0.294,0.115,0.522-0.158,0.786,0.032c0.055-0.147,0.027-0.519,0.236-0.625
			c0.263,0.189,0.067,0.26,0.317,0.265l-0.048-0.206c0.185-0.043,0.18,0.021,0.211,0.113c0.187-0.071,0.041-0.329,0.322-0.307
			l-0.05,0.241c0.14-0.146,0.222-0.144,0.466-0.229c0.039,0.11-0.058,0.145-0.143,0.144c0.246,0.226,0.17-0.219,0.252-0.218
			c-0.053-0.076-0.234-0.041-0.23-0.264c0.132-0.018,0.143-0.372,0.322-0.176l-0.055,0.235c0.186-0.248,0.035-0.29,0.352-0.327
			l0.025,0.107c0.083-0.314,0.41-0.182,0.685-0.266l-0.03,0.071c0.083-0.106,0.074-0.3,0.137-0.309
			c-0.195-0.053-0.176-0.125-0.264-0.305c0.328,0.24,0.166-0.486,0.572-0.426c0.037,0.113,0.008,0.278-0.127,0.195
			c0.014,0.37,0.107,0.652-0.033,0.881c0.097-0.123,0.225-0.225,0.246-0.076l-0.079-0.317l0.196-0.063
			c-0.041-0.204-0.275-0.257-0.147-0.449c0.16-0.174,0.226,0.271,0.204,0.122c0.226-0.225-0.012-0.369,0.29-0.37l-0.083,0.088
			c0.236,0.051,0.445-0.231,0.639,0.115c0.002,0.092,0.039,0.205-0.044,0.201l-0.019-0.057c-0.106,0.346,0.145-0.139,0.206,0.217
			c-0.09-0.191,0.191-0.248,0.324-0.256l-0.123-0.213c0.15-0.826,0.145,0.455,0.504,0.219c0.191-0.246-0.117-0.027-0.021-0.243
			c0.181-0.026,0.316,0.151,0.526-0.04c0.099,0.064,0.282,0.132,0.384,0.381c0.113-0.158,0.498-0.035,0.498-0.312
			c-0.334-0.129-0.168,0.345-0.583,0.119l-0.003-0.277c0.213-0.055,0.438-0.266,0.615-0.223l-0.082-0.158
			c0.267-0.19,0.269-0.467,0.587-0.486c0.114,0.215-0.069,0.23-0.187,0.291c0.25,0.121,0.202-0.049,0.517-0.068
			c0.083,0.193-0.199,0.049-0.167,0.256l0.3-0.167l0.015,0.04c-0.065-0.348,0.254-0.049,0.419-0.212
			c0.468-0.15,0.394-0.624,0.569-0.977c0.1,0.067,0.147,0.146,0.144,0.241c-0.163-0.111-0.105,0-0.119,0.099
			c0.148-0.087,0.449,0.218,0.403,0.38c0.22-0.178-0.144-0.146-0.024-0.301l0.35-0.09c-0.093-0.158-0.226-0.156-0.089-0.346
			c0.137-0.096,0.22-0.086,0.42-0.137c-0.003,0.092,0.141,0.24-0.01,0.277c0.113,0.034,0.264-0.006,0.271-0.191
			c-0.262-0.09,0.311-0.259,0.07-0.477l0.264,0.1c-0.051,0.01-0.022,0.127-0.105,0.111c0.14,0.244,0.157-0.123,0.226-0.167
			c0.093,0.03,0.3,0,0.345,0.097c0.049-0.09,0.233-0.078,0.303,0.047c0.089-0.078-0.039-0.174-0.035-0.266l0.356-0.07
			c0.06,0.141,0.201,0.535,0.165,0.606c0.094-0.171-0.074-0.442,0.129-0.481c-0.035,0.31,0.322,0.147,0.251,0.525
			c0.169,0.178,0.488,0.083,0.646-0.038c0.05-0.253-0.227-0.077-0.276-0.31c0.479-0.216,0.346-0.858,0.746-0.846l-0.113-0.04
			c0.2-0.191,0.182-0.155,0.268-0.387c0.009,0.302,0.457,0.698,0.818,0.538c-0.002-0.154-0.278-0.219-0.273-0.463l0.244-0.11
			l-0.016,0.118c0.201-0.166,0.51,0.266,0.498-0.08l0.33,0.371l-0.135-0.16c0-0.148,0.247-0.244,0.289-0.311
			c0.226-0.213,0.349-0.109,0.533,0.046c-0.072-0.11-0.246-0.357-0.048-0.443c0.1,0.467,0.472,0.083,0.517,0.327
			c0.083-0.023,0.262,0.092,0.231-0.104l0.047,0.293c-0.067-0.411,0.243-0.455,0.461-0.575c0.059,0.566,0.248-0.095,0.452,0.388
			c-0.032-0.387,0.382-0.232,0.362-0.562c0.176-0.055,0.225,0.299,0.293,0.411l0.057-0.158c0.123,0.158,0.463,0.113,0.683,0.194
			l0.126-0.365l0.097,0.141c0.014-0.09,0.162-0.16,0.045-0.271l0.104,0.005c-0.054-0.365,0.125-0.121,0.305-0.305l0.022,0.194
			c0.103-0.011,0.09,0.183,0.166,0.296c-0.089-0.081,0.258-0.705-0.042-0.83c-0.045-0.146,0.099-0.277,0.21-0.227l0.113,0.319
			l0.064-0.362c0.152-0.072,0.25,0.128,0.386,0.147c-0.128,0.039-0.192,0.672,0.141,0.615c-0.17,0.069-0.228,0.264-0.306,0.346
			c0.07,0.002,0.108,0.029,0.024,0.184c0.242-0.139,0.054-0.213,0.305-0.292c0.032,0.296,0.117,0.38,0.357,0.449l-0.199-0.192
			l0.017-0.083c-0.067-0.023-0.093-0.066-0.123-0.177c0.051-0.005,0.246-0.408,0.312-0.236c-0.326-0.42,0.404-0.419,0.199-0.672
			c0.018-0.091,0.197-0.133,0.237,0.012c-0.187,0.254,0.208,0.311,0.2,0.523c0.07-0.097-0.198-0.195-0.106-0.324
			c0.127-0.035,0.244,0.133,0.329,0.213l-0.046,0.063l0.217,0.104c0.013-0.152-0.226-0.223-0.053-0.324
			c0.058,0.053,0.229-0.049,0.239,0.068c-0.062,0.217,0.036,0.475-0.112,0.549c0.127-0.041,0.531-0.134,0.33-0.385l0.158-0.013
			c-0.113-0.11-0.414-0.296-0.107-0.382l0.003,0.061l0.19-0.255l0.112,0.14c-0.011-0.074,0.014-0.148,0.095-0.156
			c0.031,0.087,0.111,0.109,0.119,0.23c0.23-0.051,0.195-0.189,0.217-0.281c0.128-0.032,0.183,0.027,0.142,0.207
			c0.183,0.025,0.492-0.038,0.627,0.107c0.226-0.15-0.053-0.059,0.065-0.27c0.259,0.502,0.809,0.137,1.196,0.041
			c-0.144-0.442,0.101-0.059,0.141-0.478c-0.073,0.149,0.399,0.321,0.066,0.477l0.205-0.065c0.16,0.237-0.33,0.215-0.09,0.538
			c0.23-0.033,0.348-0.54,0.635-0.395c-0.07,0.328,0.205-0.123,0.16,0.234c-0.05,0.121-0.129,0.092-0.204,0.123l0.052,0.059
			c0.514,0.053,0.124-0.391,0.378-0.631c0.31-0.066,0.259,0.232,0.286,0.383c0.053,0.059,0.206-0.004,0.283-0.096
			C65.24,44.385,65.056,44,65.132,43.79c0.158,0.355,0.464-0.007,0.543-0.158c-0.466-0.35-0.31,0.007-0.756-0.375
			c-0.051,0.12-0.021,0.447-0.281,0.332c0.146-0.174-0.023-0.182-0.071-0.232c0.06,0.186-0.171,0.092-0.243,0.178
			c-0.081-0.147,0.123-0.448-0.141-0.504l-0.016,0.447c-0.107-0.059,0.018-0.328-0.188-0.206c0.098-0.239-0.062-0.356,0.224-0.449
			c-0.374-0.352-0.52,0.246-0.774,0.429l0.047-0.12c-0.047,0.12-0.152,0.122-0.23,0.153c-0.186-0.086,0.125-0.212,0.068-0.329
			l-0.288,0.034l-0.011-0.031c-0.07,0.066-0.141,0.112-0.176,0.005c0.072-0.149,0.094-0.299,0.143-0.419l-0.277,0.332
			c0.02-0.148-0.275-0.232-0.068-0.355l-0.445,0.098l-0.07-0.296c-0.103,0.061-0.1,0.12,0.035,0.146
			c-0.165-0.055-0.631,0.578-0.614-0.018c-0.331,0.268-0.467,0.198-0.874,0.408c0.293-0.32-0.422-0.295-0.088-0.471
			c-0.221-0.1-0.225,0.228-0.379,0.301c-0.166-0.105-0.137-0.407,0.014-0.54l-0.176,0.164l-0.004-0.06l-0.145,0.191
			c-0.199-0.133-0.077-0.293-0.268-0.308l-0.003,0.269l-0.146-0.135c0.062,0.113-0.037,0.182-0.17,0.222l-0.005-0.06l-0.154,0.073
			c0.138-0.182-0.155-0.035-0.109-0.233c-0.139,0.007-0.142,0.01-0.386,0.095l0.071,0.174c-0.302,0.202-0.055-0.267-0.321-0.242
			l0.049,0.202c-0.436-0.291-0.613,0.29-0.93,0.107c0.152-0.07,0.074-0.305,0.079-0.244c-0.229,0.108-0.635,0.11-0.843,0.396
			c-0.142-0.28-0.18-0.365-0.46-0.446c-0.183,0.058-0.206,0.09-0.233,0.274c-0.201-0.076-0.507,0.163-0.558-0.049
			c-0.007,0.178-0.167-0.002-0.239,0.164l-0.037-0.086l0.055,0.203c-0.411-0.393-0.484,0.369-0.889,0.036l0.045-0.066L54.32,42.9
			c-0.041-0.085,0.004-0.152-0.014-0.27l-0.641,0.093l0.158,0.129c-0.13,0.047-0.175,0.263-0.356,0.17
			c0.186-0.357-0.212,0.031-0.305-0.196l0.119-0.108c-0.183,0.058-0.183,0.058-0.121,0.26c-0.223,0.12-0.254-0.354-0.426-0.09
			l0.16-0.023c0.074,0.109,0,0.301-0.105,0.316c-0.033-0.027-0.129-0.101-0.055-0.143c-0.17,0.117-0.481,0.066-0.543,0.17
			c-0.114-0.035-0.116-0.189-0.074-0.257c-0.357,0.284-0.191,0.008-0.547,0.29l-0.022-0.114l-0.103,0.172l-0.256-0.191l0.107,0.132
			c-0.127,0.055-0.188,0.158-0.357,0.131l0.018-0.188c-0.346,0.193-0.504-0.17-0.793,0.162l0.03-0.129
			c-0.257,0.355-0.329-0.236-0.569,0.176l-0.051-0.176l-0.121,0.15l-0.05-0.232l-0.032,0.371l-0.156-0.213l-0.027,0.127
			c-0.283-0.396-0.417-0.005-0.729-0.274l0.118,0.277c-0.384,0.735-1.362,0.007-1.936,0.509l-0.058-0.232l-0.188,0.355
			c-0.201-0.131,0.026-0.223-0.056-0.323c-0.252,0.219-0.016,0.374-0.332,0.548c-0.221-0.097,0.006-0.187,0.063-0.293
			c-0.282,0.214-0.708,0.488-0.973,0.435l0.019,0.085c-0.177,0.171-0.487,0.159-0.715,0.249c-0.029-0.105,0.021-0.141,0.072-0.182
			c-0.088,0.014-0.227-0.02-0.262,0.108l0.022-0.224c-0.192,0.02-0.477,0.309-0.595,0.094c0.053,0.08,0.102,0.252-0.057,0.291
			c-0.204-0.313-0.372,0.273-0.677,0.188c0-0.094,0.172-0.177,0.119-0.163c-0.153-0.045-0.205,0.158-0.275,0.306l-0.016-0.15
			l-0.498,0.404c-0.209-0.31-0.515,0.253-0.567-0.009c-0.208,0.064,0.226,0.086-0.016,0.222c-0.122-0.118-0.205,0.156-0.278-0.07
			l0.018-0.034l-0.172,0.083l0.031-0.259c-0.137,0.105-0.168,0.367-0.112,0.535c-0.191-0.065-0.36,0.112-0.503-0.061l0.033-0.073
			c-0.375,0.243-0.912-0.339-1.09,0.153l-0.005-0.092l-0.259,0.082l-0.005-0.186l-0.317,0.411l-0.041-0.112
			c-0.299,0.055-0.701,0.299-1.035,0.484l0.029-0.073c-0.311,0.336-0.412,0.056-0.641,0.299l0.01-0.06l-0.25,0.115l0.012-0.131
			c-0.087,0.316-0.667-0.073-0.467,0.075c-0.059,0.149-0.185,0.354-0.158,0.502c-0.27,0.131-0.129-0.11-0.339-0.13
			c-0.204,0.076-0.155,0.278-0.468,0.299l-0.042-0.11c-0.118,0.072-0.161,0.185-0.329,0.278l0.028-0.074
			c-0.182,0.351-0.501-0.164-0.51,0.408c-0.159-0.035-0.354,0.131-0.445-0.09c-0.291,0.293-0.526,0.504-0.831,0.758
			c-0.223-0.328-0.062,0.058-0.369-0.041l0.107,0.182c-0.475,0.264-1.264,0.075-1.767,0.417l-0.108-0.181l-0.006,0.26
			c-0.622,0.201-1.42,0.486-1.875,0.732c-0.098,0.178-0.205,0.523-0.475,0.585l0.011-0.038c-0.353,0.332-0.742,0.644-1.246,0.783
			c-0.015-0.093-0.089-0.123-0.066-0.2c0.006,0.261-0.256,0.153-0.355,0.2l0.188,0.076c-0.03,0.244-0.305,0.176-0.444,0.078
			l-0.092,0.307l-0.079-0.055l0.019,0.114l-0.241-0.183c-0.023,0.077-0.254,0.285-0.206,0.559c-0.066-0.068-0.288-0.029-0.167-0.152
			l-0.773,0.332l0.162,0.021c0.117,0.172-0.033,0.414-0.191,0.398c0.061-0.234-0.136-0.266-0.277-0.361
			c-0.04,0.156,0.178,0.109,0.185,0.24c-0.052,0.195-0.274,0.413-0.385,0.369l0.03-0.116c-0.126,0.167-0.387-0.101-0.542,0.013
			c-0.062,0.233-0.249,0.165-0.037,0.456c-0.174,0.191-0.205-0.161-0.292-0.148c-0.012,0.207-0.365,0.29-0.498,0.156
			c0.157,0.522-0.67,0.183-0.483,0.589l-0.304-0.109c0.056,0.104,0.161,0.354,0.044,0.479c-0.2-0.029-0.277-0.224-0.381-0.306
			l0.142,0.43c-1.025,0.047-1.846,0.959-2.875,1.178c-0.316,0.32-0.664,0.793-1.126,1.021l0.017-0.076l-0.492,0.178l0.422-0.034
			c-0.064,0.103-0.089,0.222-0.182,0.274c-0.568,0.152-1.321,0.377-1.746,0.969c-0.069,0.676-0.499-0.196-0.633,0.354l-0.03-0.187
			c-0.276,0.404-0.428,0.621-0.628,1.131c-0.251-0.439-0.235,0.184-0.356-0.058l0.089,0.19c-0.156-0.043-0.379,0.061-0.436-0.078
			l-0.014,0.326l-0.138-0.16c-0.229,0.144-0.595,0.617-0.963,0.356c-0.356,0.64-1.228,1.222-1.943,1.663
			c0.012,0.209-0.172,0.369-0.312,0.5l-0.314-0.074c-0.106,0.181-0.073,0.553-0.315,0.537l-0.024-0.062
			c-0.124,0.161-0.354,0.171-0.356,0.465c-0.178,0.12-0.427,0.146-0.52-0.077c0.244,0.338-0.398,0.233-0.397,0.235
			c-0.027-0.088-9.186,6.467-9.39,10.096c0.079,0.207-0.005,0.475,0.236,0.58c-0.083,0.188-0.403-0.006-0.285,0.164
			c0.284-0.085,0.319,0.431,0.682,0.436L0.64,74.451c0.08,0.125,0.041-0.271,0.2-0.058l-0.238-0.302
			c0.135-0.051,0.245-0.046,0.369,0.015c-0.017-0.192-0.326-0.615,0.047-0.662L0.975,73.52c0.163-0.179,0.28,0.072,0.36,0.082
			l-0.041,0.035l0.282-0.004c-0.201,0.015-0.164,0.413-0.084,0.304c0.281-0.123-0.119-0.014,0.002-0.196
			c0.082-0.108,0.2,0.064,0.279,0.152l0.162-0.178c0.119,0.134-0.12,0.105,0.078,0.168l0.084-0.344
			c0.355,0.284,0.084-0.384,0.479-0.174c-0.08,0.225,0.12,0.094,0.197,0.222l0.362-0.385c0.079,0.009-0.003,0.194,0.039,0.124
			c0.158,0.02,0.041-0.193,0.082-0.229c0.119,0.058,0.281-0.279,0.477-0.053c0.394-0.104-0.154-0.379,0.204-0.487
			c0.156,0.1-0.161,0.216,0.075,0.249l0.202-0.29c0.038,0.085,0.154,0.259,0.034,0.322c0.83-0.485,1.86-0.11,2.322-0.854
			c0.236,0.078,0.034,0.163,0.068,0.324c0.262-0.623,0.96-0.226,1.328-0.592l-0.113-0.139c0.913-0.066,1.325-0.912,2.103-1.264
			l-0.157-0.032c-0.025-0.202,0.102-0.334,0.154-0.479c0.074,0.055,0.173,0.351,0.307,0.142c-0.079-0.017-0.199-0.002-0.233-0.088
			c0.841-0.1,1.903-1.133,2.928-1.697c1.122-1.092,2.689-1.828,3.822-2.855c-0.176,0.152-0.362-0.261-0.162-0.285
			c0.821,0.297,0.6-0.593,1.297-0.471c0.583-0.713,1.603-0.648,1.945-1.596l0.134,0.162c0.155,0.008,0.098-0.133,0.192-0.224
			l0.031,0.05c0.294-0.113,0.474-0.506,0.675-0.523l-0.125-0.202c0.14-0.115,0.182,0.101,0.262-0.114l0.062,0.102l0.056-0.306
			c0.216,0.354,0.448-0.256,0.674-0.181c0.156-0.189,0.43-0.586,0.774-0.713c0.174,0.141,0.538-0.101,0.83-0.164
			c0.428-0.336,1.026-0.844,1.661-1.13l-0.153-0.222l0.146-0.109l0.059,0.104c0.282,0.19,0.307-0.295,0.532-0.207
			c-0.206-0.16-0.129,0.031-0.22,0.08c-0.195-0.033-0.211-0.328,0.031-0.318l0.028,0.055l0.042-0.191
			c0.124,0.17,0.281,0.191,0.404,0.36c0.481-0.349,0.642-0.868,1.219-1.1c0.065,0.233,0.347-0.278,0.448,0.136
			c0.237-0.322-0.219-0.252-0.221-0.588c0.092-0.048,0.127-0.201,0.22-0.08c0.008,0.109,0.197,0.171,0.145,0.246l0.194-0.154
			l0.009,0.129c0.309-0.467,0.894-0.227,1.171-0.643c-0.043-0.144-0.177,0.049-0.222-0.094c0.25-0.479,0.482,0.036,0.747-0.349
			l0.024,0.218c0.05-0.185,0.017-0.369,0.293-0.332c0.151,0.191-0.071,0.262-0.111,0.411c0.14-0.065,0.45-0.306,0.24-0.438
			c0.124-0.158,0.286-0.002,0.404,0.006c-0.025-0.051-0.228-0.056-0.189-0.205c0.286-0.003,0.623-0.193,0.901-0.32l0.077,0.159
			C31.373,55.87,31.603,56.354,31.867,56.133z"/>
		<path fill="#FFFFFF" d="M46.344,48.554l-0.129,0.005c0.017,0.048,0.03,0.109-0.005,0.182L46.344,48.554z"/>
		<path fill="#FFFFFF" d="M40.759,50.428l-0.016,0.076L40.759,50.428z"/>
		<path fill="#FFFFFF" d="M39.603,51.375c0.074-0.09-0.034-0.111-0.104-0.146C39.517,51.273,39.541,51.325,39.603,51.375z"/>
		<path fill="#FFFFFF" d="M49.345,46.949l-0.001,0.109L49.345,46.949z"/>
		<path fill="#FFFFFF" d="M58.394,45.107l-0.044-0.031L58.394,45.107z"/>
		<path fill="#FFFFFF" d="M57.826,44.81l-0.097,0.05L57.826,44.81z"/>
		<path fill="#FFFFFF" d="M47.224,47.692l-0.069,0.102L47.224,47.692z"/>
		<polygon fill="#FFFFFF" points="57.633,44.926 57.499,44.92 57.506,44.965 		"/>
		<path fill="#FFFFFF" d="M58.558,45.113l-0.164-0.006C58.466,45.161,58.517,45.156,58.558,45.113z"/>
		<path fill="#FFFFFF" d="M52.558,45.773l-0.014,0.008C52.472,45.908,52.523,45.85,52.558,45.773z"/>
		<polygon fill="#FFFFFF" points="57.147,45.416 57.128,45.41 57.102,45.482 		"/>
		<polygon fill="#FFFFFF" points="59.121,45.125 59.062,45.179 59.138,45.195 		"/>
		<path fill="#FFFFFF" d="M54.533,45.723c0.018-0.093,0.02-0.154,0.01-0.199C54.501,45.535,54.485,45.58,54.533,45.723z"/>
	</g>
	<polygon fill="#FFFFFF" points="16.912,2.5 19.333,2.406 17.755,0.531 	"/>
	<polygon fill="#FFFFFF" points="56.958,0.5 59.63,1.484 58.458,0 	"/>
</g>
</svg>
