<?xml version="1.0" encoding="UTF-8"?>
<svg width="77px" height="96px" viewBox="0 0 77 96" version="1.1" xmlns="http://www.w3.org/2000/svg" xmlns:xlink="http://www.w3.org/1999/xlink">
    <!-- Generator: Sketch 42 (36781) - http://www.bohemiancoding.com/sketch -->
    <title>logo_MMC_blanc_map_bis</title>
    <desc>Created with Sketch.</desc>
    <defs>
        <rect id="path-1" x="0.142" y="0.067" width="75.958" height="81.518"></rect>
        <rect id="path-3" x="0.142" y="0.067" width="75.958" height="81.518"></rect>
        <rect id="path-5" x="0.142" y="0.067" width="75.958" height="81.518"></rect>
        <rect id="path-7" x="0.142" y="0.067" width="75.958" height="81.518"></rect>
        <rect id="path-9" x="0.142" y="0.067" width="75.958" height="81.518"></rect>
        <rect id="path-11" x="0.142" y="0.067" width="75.958" height="81.518"></rect>
        <rect id="path-13" x="0.142" y="0.067" width="75.958" height="81.518"></rect>
        <rect id="path-15" x="0.142" y="0.067" width="75.958" height="81.518"></rect>
    </defs>
    <g id="Page-1" stroke="none" stroke-width="1" fill="none" fill-rule="evenodd">
        <g id="logo_MMC_blanc_map_bis">
            <g id="Group">
                <g opacity="0.5" id="Clipped">
                    <g>
                        <g>
                            <mask id="mask-2" fill="white">
                                <use xlink:href="#path-1"></use>
                            </mask>
                            <g id="SVGID_1_"></g>
                            <path d="M2.139,19.112 C10.305,18.938 18.496,19.899 26.095,16.226 C32.874,12.949 38.04,7.306 43.735,2.538 C43.936,2.369 43.545,1.502 43.735,1.342 C38.014,6.133 32.856,11.66 26.095,15.031 C18.575,18.78 10.247,17.744 2.139,17.917 C2.122,17.917 2.139,19.112 2.139,19.112 Z" id="Shape" fill="#FFFFFF" fill-rule="nonzero" mask="url(#mask-2)"></path>
                        </g>
                        <g>
                            <mask id="mask-4" fill="white">
                                <use xlink:href="#path-3"></use>
                            </mask>
                            <g id="SVGID_1_"></g>
                            <path d="M43.889,1.24 C45.254,3.926 47.087,6.208 49.291,8.128 C51.704,10.231 54.519,11.822 57.096,13.676 C59.905,15.695 62.711,17.685 65.688,19.406 C68.756,21.18 71.872,22.861 74.985,24.544 C74.846,24.47 75.135,23.453 74.985,23.371 C71.872,21.688 68.76,20 65.688,18.233 C62.709,16.519 59.902,14.523 57.096,12.503 C54.511,10.642 51.738,9.027 49.291,6.955 C47.074,5.078 45.244,2.733 43.889,0.067 C44.04,0.363 43.735,0.936 43.889,1.24" id="Shape" fill="#FFFFFF" fill-rule="nonzero" mask="url(#mask-4)"></path>
                        </g>
                        <g>
                            <mask id="mask-6" fill="white">
                                <use xlink:href="#path-5"></use>
                            </mask>
                            <g id="SVGID_1_"></g>
                            <path d="M76.077,25.009 C74.301,25.469 72.9,27.028 71.714,28.561 C70.331,30.347 69.183,32.391 68.145,34.467 C65.905,38.947 65.412,43.724 65.403,48.823 C65.403,49.175 65.411,49.935 65.413,49.128 C65.417,46.156 65.594,43.218 66.328,40.362 C66.878,38.228 67.777,36.274 68.774,34.39 C70.422,31.276 72.806,27.002 76.078,26.155 C76.152,26.136 76.017,25.025 76.077,25.009" id="Shape" fill="#FFFFFF" fill-rule="nonzero" mask="url(#mask-6)"></path>
                        </g>
                        <g>
                            <mask id="mask-8" fill="white">
                                <use xlink:href="#path-7"></use>
                            </mask>
                            <g id="SVGID_1_"></g>
                            <path d="M65.407,46.784 C65.237,50.06 65.845,53.04 67.443,55.936 C69.426,59.533 72.389,62.49 74.97,65.648 C74.779,65.414 75.169,64.696 74.97,64.453 C72.968,62.003 70.807,59.686 68.959,57.113 C67.123,54.559 65.24,51.197 65.409,47.936 C65.429,47.577 65.392,47.065 65.407,46.784" id="Shape" fill="#FFFFFF" fill-rule="nonzero" mask="url(#mask-8)"></path>
                        </g>
                        <g>
                            <mask id="mask-10" fill="white">
                                <use xlink:href="#path-9"></use>
                            </mask>
                            <g id="SVGID_1_"></g>
                            <path d="M75.13,64.771 C68.899,64.571 65.012,70.43 64.452,76.086 C64.413,76.481 64.491,76.888 64.452,77.281 C65.012,71.625 68.898,65.765 75.13,65.966 C75.126,65.967 75.152,64.772 75.13,64.771" id="Shape" fill="#FFFFFF" fill-rule="nonzero" mask="url(#mask-10)"></path>
                        </g>
                        <g>
                            <mask id="mask-12" fill="white">
                                <use xlink:href="#path-11"></use>
                            </mask>
                            <g id="SVGID_1_"></g>
                            <path d="M64.452,76.406 C59.121,75.26 55.098,70.67 49.363,71.105 C47.281,71.263 45.172,71.907 44.233,73.92 C43.371,75.771 43.518,78.086 43.256,80.069 C43.203,80.463 43.307,80.876 43.256,81.265 C43.516,79.295 43.453,77.192 44.152,75.308 C44.969,73.103 47.255,72.534 49.363,72.299 C55.016,71.672 59.208,76.472 64.452,77.599 C64.38,77.586 64.543,76.425 64.452,76.406" id="Shape" fill="#FFFFFF" fill-rule="nonzero" mask="url(#mask-12)"></path>
                        </g>
                        <g>
                            <mask id="mask-14" fill="white">
                                <use xlink:href="#path-13"></use>
                            </mask>
                            <g id="SVGID_1_"></g>
                            <path d="M43.097,80.39 C38.046,77.786 32.732,75.248 27.19,73.883 C21.676,72.524 15.885,72.985 10.426,71.306 C10.529,71.338 10.306,72.464 10.426,72.501 C15.876,74.176 21.661,73.81 27.19,75.078 C32.722,76.347 38.081,78.998 43.097,81.585 C42.941,81.505 43.266,80.477 43.097,80.39" id="Shape" fill="#FFFFFF" fill-rule="nonzero" mask="url(#mask-14)"></path>
                        </g>
                        <g>
                            <mask id="mask-16" fill="white">
                                <use xlink:href="#path-15"></use>
                            </mask>
                            <g id="SVGID_1_"></g>
                            <path d="M11.836,69.631 C14.815,65.414 17.715,61.071 19.362,56.137 C20.627,52.347 20.93,48.049 20.141,44.119 C19.175,39.311 16.122,35.247 12.824,31.759 C8.852,27.56 4.412,23.783 0.202,19.828 C0.396,20.01 -0.001,20.832 0.202,21.023 C3.97,24.563 7.846,27.998 11.526,31.631 C14.637,34.703 17.501,38.114 19.185,42.191 C23.081,51.629 17.134,60.937 11.836,68.435 C11.645,68.706 12.021,69.369 11.836,69.631" id="Shape" fill="#FFFFFF" fill-rule="nonzero" mask="url(#mask-16)"></path>
                        </g>
                    </g>
                </g>
                <circle id="Oval" stroke="#FFFFFF" cx="36.683" cy="74.293" r="1.823"></circle>
            </g>
            <polygon id="Shape" stroke="#FFFFFF" points="53.539 28.828 50.015 18.673 46.274 30.479"></polygon>
            <polyline id="Shape" stroke="#FFFFFF" points="53.703 29.031 47.478 57.204 41.559 57.204"></polyline>
            <path d="M46.274,30.479 L41.559,57.204" id="Shape" stroke="#FFFFFF"></path>
            <polyline id="Shape" stroke="#FFFFFF" points="50.142 17.954 39.79 24.769 39.307 28.668 46.274 30.479"></polyline>
            <polyline id="Shape" stroke="#FFFFFF" points="39.314 28.668 37.625 38.004 37.833 40.22"></polyline>
            <polyline id="Shape" stroke="#FFFFFF" points="27.559 8.482 35.678 17.34 39.807 61.184 37.547 63.01 33.316 20.711 27.559 8.482"></polyline>
            <polyline id="Shape" stroke="#FFFFFF" points="37.547 63.01 30.064 67.527 24.938 67.25 22.434 20.478 22.522 20.273 27.558 8.482 26.582 22.568 33.317 20.711 35.678 17.34"></polyline>
            <polyline id="Shape" stroke="#FFFFFF" points="30.064 67.527 26.466 22.812 22.435 20.479"></polyline>
            <polyline id="Shape" stroke="#FFFFFF" points="67.959 7.531 64.848 8.5 66.196 14.817 70.976 15.971 71.855 12.329 67.959 7.531"></polyline>
            <path d="M64.705,8.437 L52.861,26.876" id="Shape" stroke="#FFFFFF"></path>
            <path d="M66.196,14.816 L50.986,40.771" id="Shape" stroke="#FFFFFF"></path>
            <path d="M70.905,16.297 L48.081,54.385" id="Shape" stroke="#FFFFFF"></path>
            <path d="M45.453,32.266 L44.172,30.479" id="Shape" fill="#FFFFFF" fill-rule="nonzero"></path>
            <path d="M65.187,49.494 L65.181,49.385 L65.187,49.494 Z" id="Shape" fill="#FFFFFF" fill-rule="nonzero"></path>
            <path d="M59.258,50.168 L59.311,50.101 L59.258,50.168 Z" id="Shape" fill="#FFFFFF" fill-rule="nonzero"></path>
            <g id="Group" transform="translate(9.000000, 49.000000)" fill-rule="nonzero" fill="#FFFFFF">
                <path d="M59.723,0.2 L59.718,0.226 C59.775,0.223 59.846,0.219 59.966,0.209 L59.723,0.2 Z" id="Shape"></path>
                <path d="M38,4.621 L38.072,4.586 L38,4.621 Z" id="Shape"></path>
                <path d="M45.232,2.424 L45.158,2.526 C45.208,2.519 45.24,2.498 45.232,2.424" id="Shape"></path>
                <path d="M61.842,2.238 L61.727,2.097 C61.735,2.164 61.779,2.229 61.842,2.238" id="Shape"></path>
                <path d="M65.249,1.311 L65.237,1.276 L65.249,1.311 Z" id="Shape"></path>
                <path d="M63.835,0.794 L63.742,0.869 C63.782,0.861 63.836,0.857 63.835,0.794" id="Shape"></path>
                <path d="M63.697,0.912 L63.742,0.869 L63.697,0.912 Z" id="Shape"></path>
                <path d="M0.77,31.076 C0.691,31.143 0.712,31.289 0.715,31.422 L0.77,31.076 Z" id="Shape"></path>
                <path d="M27.626,9.627 L27.615,9.559 L27.626,9.627 Z" id="Shape"></path>
                <path d="M1.64,32.129 L1.565,32.156 L1.64,32.129 Z" id="Shape"></path>
                <path d="M60.084,2.916 C60.008,3.083 59.777,2.932 59.804,3.078 C59.902,3.041 60.068,3.132 60.084,2.916" id="Shape"></path>
                <path d="M28.446,15.828 L28.394,15.871 L28.446,15.828 Z" id="Shape"></path>
                <polygon id="Shape" points="1.64 32.129 1.727 32.096 1.653 32.06"></polygon>
                <polygon id="Shape" points="17.447 15.921 17.45 15.918 17.454 15.881"></polygon>
                <path d="M16.788,16.086 L16.869,15.966 C16.801,15.996 16.785,16.038 16.788,16.086" id="Shape"></path>
                <path d="M0.715,31.422 L0.683,31.619 L0.715,31.422 Z" id="Shape"></path>
                <path d="M11.433,20.357 L11.471,20.302 L11.433,20.357 Z" id="Shape"></path>
                <path d="M45.719,2.358 L45.782,2.373 L45.719,2.358 Z" id="Shape"></path>
                <polygon id="Shape" points="42.748 7.764 42.744 7.766 42.746 7.77"></polygon>
                <path d="M42.904,7.502 C42.82,7.496 42.759,7.637 42.749,7.764 C42.816,7.737 42.874,7.682 42.904,7.502" id="Shape"></path>
                <path d="M42.232,7.877 L42.266,7.885 L42.232,7.877 Z" id="Shape"></path>
                <polygon id="Shape" points="46.897 6.512 46.893 6.494 46.895 6.51"></polygon>
                <path d="M45.996,6.83 L45.91,6.787 L45.996,6.83 Z" id="Shape"></path>
                <polygon id="Shape" points="40.182 9.182 40.18 9.174 40.176 9.178"></polygon>
                <path d="M32.549,14.086 C33.285,13.555 34.199,12.777 35.042,12.46 C35.076,12.09 35.326,11.953 35.553,11.764 L35.764,12.127 L35.918,11.902 C36.062,11.972 35.788,12.052 36.012,12.121 L35.98,11.846 C36.062,11.973 36.569,11.666 36.342,12.114 L37.169,11.708 C37.357,11.63 37.127,11.337 37.373,11.331 C37.467,11.423 37.336,11.444 37.416,11.571 C38.161,11.579 37.791,10.517 38.45,10.436 L38.424,10.508 C38.479,10.362 38.672,10.293 38.652,10.238 C38.404,9.882 38.639,10.494 38.361,10.341 C38.23,10.01 38.504,10.07 38.381,9.828 C38.571,9.886 38.57,9.666 38.678,9.595 C38.972,9.71 39.2,9.437 39.464,9.627 C39.52,9.48 39.491,9.109 39.7,9.002 C39.963,9.19 39.767,9.262 40.017,9.267 L39.969,9.061 C40.155,9.018 40.15,9.082 40.18,9.174 C40.367,9.103 40.221,8.845 40.502,8.867 L40.452,9.109 C40.592,8.962 40.674,8.964 40.918,8.879 C40.957,8.989 40.861,9.024 40.776,9.023 C41.022,9.25 40.945,8.804 41.028,8.805 C40.974,8.729 40.793,8.764 40.797,8.541 C40.929,8.523 40.941,8.169 41.119,8.365 L41.065,8.6 C41.25,8.352 41.099,8.31 41.416,8.273 L41.442,8.38 C41.525,8.065 41.852,8.198 42.126,8.114 L42.096,8.185 C42.179,8.079 42.17,7.885 42.234,7.875 C42.038,7.822 42.057,7.75 41.969,7.57 C42.297,7.811 42.135,7.084 42.541,7.145 C42.578,7.258 42.549,7.423 42.414,7.34 C42.428,7.71 42.522,7.992 42.381,8.221 C42.479,8.098 42.607,7.996 42.627,8.145 L42.548,7.828 L42.744,7.765 C42.703,7.561 42.469,7.508 42.597,7.315 C42.757,7.142 42.823,7.587 42.801,7.438 C43.029,7.213 42.789,7.068 43.091,7.067 L43.008,7.155 C43.244,7.206 43.453,6.925 43.648,7.271 C43.65,7.362 43.687,7.476 43.604,7.472 L43.583,7.415 C43.478,7.761 43.729,7.276 43.789,7.632 C43.699,7.44 43.981,7.384 44.113,7.376 L43.99,7.163 C44.14,6.337 44.135,7.618 44.494,7.382 C44.686,7.136 44.377,7.355 44.473,7.139 C44.655,7.112 44.789,7.29 44.999,7.099 C45.098,7.163 45.281,7.231 45.383,7.48 C45.496,7.321 45.881,7.444 45.881,7.167 C45.547,7.038 45.713,7.512 45.298,7.286 L45.295,7.009 C45.508,6.954 45.733,6.743 45.91,6.786 L45.828,6.628 C46.095,6.438 46.097,6.161 46.415,6.142 C46.529,6.356 46.346,6.372 46.229,6.433 C46.479,6.554 46.43,6.384 46.745,6.364 C46.828,6.558 46.546,6.413 46.578,6.62 L46.878,6.453 L46.894,6.493 C46.829,6.146 47.148,6.444 47.313,6.281 C47.78,6.131 47.706,5.657 47.881,5.305 C47.982,5.372 48.029,5.451 48.027,5.546 C47.864,5.435 47.921,5.546 47.907,5.645 C48.055,5.558 48.357,5.862 48.311,6.024 C48.53,5.847 48.166,5.878 48.287,5.724 L48.637,5.634 C48.544,5.476 48.411,5.478 48.548,5.288 C48.686,5.192 48.768,5.202 48.968,5.151 C48.965,5.243 49.11,5.392 48.958,5.429 C49.071,5.463 49.222,5.423 49.23,5.237 C48.967,5.147 49.54,4.979 49.299,4.761 L49.564,4.86 C49.512,4.87 49.541,4.987 49.458,4.972 C49.598,5.216 49.616,4.849 49.684,4.805 C49.778,4.835 49.985,4.805 50.03,4.901 C50.078,4.812 50.262,4.823 50.332,4.948 C50.421,4.87 50.293,4.774 50.297,4.683 L50.654,4.612 C50.713,4.753 50.855,5.147 50.819,5.218 C50.912,5.047 50.744,4.776 50.947,4.737 C50.912,5.047 51.27,4.884 51.199,5.263 C51.367,5.44 51.687,5.346 51.845,5.225 C51.896,4.972 51.618,5.147 51.57,4.915 C52.048,4.699 51.915,4.057 52.316,4.069 L52.202,4.029 C52.403,3.838 52.384,3.874 52.47,3.643 C52.48,3.944 52.927,4.341 53.288,4.181 C53.286,4.026 53.01,3.962 53.015,3.718 L53.259,3.608 L53.243,3.726 C53.445,3.56 53.753,3.991 53.741,3.646 L54.072,4.017 L53.937,3.856 C53.937,3.708 54.183,3.612 54.225,3.546 C54.451,3.333 54.575,3.437 54.758,3.592 C54.687,3.481 54.512,3.235 54.71,3.149 C54.81,3.615 55.182,3.231 55.227,3.476 C55.31,3.452 55.489,3.567 55.457,3.372 L55.504,3.665 C55.439,3.254 55.747,3.21 55.965,3.09 C56.025,3.655 56.213,2.995 56.417,3.478 C56.385,3.091 56.799,3.245 56.78,2.915 C56.955,2.86 57.004,3.214 57.072,3.326 L57.129,3.168 C57.252,3.326 57.592,3.281 57.814,3.362 L57.94,2.997 L58.036,3.138 C58.05,3.048 58.198,2.978 58.081,2.867 L58.185,2.872 C58.131,2.507 58.31,2.751 58.49,2.567 L58.511,2.762 C58.615,2.751 58.601,2.944 58.677,3.058 C58.588,2.977 58.935,2.353 58.635,2.228 C58.59,2.081 58.735,1.95 58.845,2 L58.958,2.319 L59.023,1.957 C59.174,1.885 59.273,2.085 59.409,2.105 C59.281,2.144 59.216,2.776 59.549,2.72 C59.379,2.789 59.322,2.983 59.243,3.065 C59.314,3.067 59.351,3.095 59.267,3.249 C59.509,3.11 59.322,3.036 59.573,2.957 C59.605,3.253 59.69,3.337 59.928,3.406 L59.73,3.214 L59.747,3.131 C59.68,3.108 59.655,3.065 59.624,2.954 C59.675,2.949 59.87,2.546 59.937,2.718 C59.611,2.298 60.34,2.299 60.135,2.046 C60.154,1.955 60.332,1.913 60.372,2.058 C60.186,2.312 60.58,2.368 60.572,2.581 C60.642,2.485 60.374,2.386 60.467,2.257 C60.594,2.222 60.711,2.39 60.796,2.47 L60.75,2.533 L60.967,2.638 C60.981,2.485 60.74,2.415 60.914,2.314 C60.972,2.366 61.143,2.265 61.154,2.382 C61.091,2.599 61.19,2.856 61.041,2.931 C61.168,2.89 61.572,2.797 61.371,2.546 L61.53,2.533 C61.416,2.423 61.115,2.237 61.422,2.151 L61.425,2.212 L61.615,1.957 L61.728,2.097 C61.716,2.022 61.742,1.948 61.822,1.94 C61.854,2.027 61.933,2.05 61.942,2.171 C62.171,2.12 62.136,1.981 62.158,1.89 C62.286,1.858 62.341,1.917 62.301,2.097 C62.485,2.122 62.793,2.059 62.928,2.204 C63.156,2.054 62.875,2.146 62.993,1.935 C63.252,2.437 63.802,2.071 64.19,1.976 C64.044,1.533 64.29,1.917 64.33,1.498 C64.257,1.647 64.729,1.819 64.397,1.975 L64.6,1.91 C64.76,2.148 64.271,2.125 64.51,2.448 C64.74,2.415 64.859,1.908 65.146,2.053 C65.075,2.381 65.35,1.93 65.305,2.287 C65.255,2.408 65.176,2.379 65.102,2.41 L65.154,2.469 C65.667,2.522 65.278,2.078 65.532,1.838 C65.841,1.772 65.79,2.07 65.818,2.221 C65.87,2.279 66.024,2.217 66.1,2.125 C65.922,2.338 65.739,1.953 65.816,1.743 C65.973,2.099 66.28,1.736 66.359,1.585 C65.892,1.236 66.048,1.592 65.603,1.21 C65.551,1.33 65.581,1.657 65.321,1.542 C65.467,1.368 65.298,1.361 65.25,1.311 C65.311,1.496 65.079,1.402 65.007,1.488 C64.926,1.341 65.13,1.04 64.866,0.984 L64.85,1.432 C64.743,1.373 64.868,1.104 64.662,1.226 C64.76,0.986 64.6,0.869 64.886,0.777 C64.512,0.425 64.365,1.023 64.112,1.205 L64.159,1.085 C64.112,1.205 64.007,1.207 63.929,1.238 C63.743,1.152 64.054,1.027 63.997,0.909 L63.709,0.943 L63.698,0.912 C63.628,0.979 63.557,1.025 63.523,0.917 C63.594,0.768 63.616,0.618 63.665,0.498 L63.388,0.83 C63.408,0.682 63.113,0.598 63.321,0.475 L62.875,0.572 L62.805,0.277 C62.702,0.337 62.705,0.397 62.84,0.422 C62.675,0.367 62.209,1 62.226,0.404 C61.896,0.672 61.759,0.603 61.352,0.813 C61.646,0.492 60.93,0.518 61.264,0.342 C61.043,0.242 61.039,0.569 60.885,0.643 C60.719,0.537 60.748,0.236 60.9,0.103 L60.723,0.267 L60.719,0.207 L60.574,0.398 C60.375,0.266 60.497,0.106 60.306,0.091 L60.303,0.359 L60.157,0.225 C60.219,0.338 60.12,0.406 59.987,0.446 L59.983,0.387 L59.828,0.46 C59.966,0.278 59.673,0.425 59.719,0.227 C59.58,0.234 59.577,0.236 59.333,0.321 L59.405,0.495 C59.103,0.697 59.349,0.229 59.083,0.253 L59.132,0.455 C58.696,0.164 58.52,0.745 58.202,0.563 C58.355,0.492 58.277,0.258 58.282,0.318 C58.052,0.427 57.647,0.429 57.439,0.715 C57.296,0.435 57.258,0.35 56.979,0.269 C56.795,0.326 56.773,0.359 56.745,0.543 C56.544,0.467 56.239,0.706 56.188,0.494 C56.18,0.672 56.021,0.492 55.948,0.658 L55.911,0.572 L55.966,0.775 C55.555,0.383 55.483,1.145 55.077,0.812 L55.122,0.745 L55.003,0.854 C54.962,0.769 55.007,0.701 54.989,0.583 L54.348,0.676 L54.506,0.805 C54.376,0.852 54.331,1.068 54.152,0.975 C54.337,0.617 53.94,1.006 53.846,0.778 L53.965,0.67 C53.781,0.728 53.781,0.728 53.844,0.93 C53.621,1.05 53.59,0.575 53.418,0.84 L53.578,0.816 C53.653,0.926 53.578,1.117 53.473,1.133 C53.441,1.106 53.344,1.031 53.418,0.99 C53.248,1.107 52.939,1.057 52.875,1.16 C52.761,1.125 52.759,0.971 52.801,0.903 C52.446,1.188 52.611,0.911 52.254,1.193 L52.233,1.079 L52.129,1.251 L51.873,1.06 L51.981,1.191 C51.854,1.246 51.792,1.35 51.623,1.322 L51.641,1.135 C51.295,1.328 51.137,0.965 50.848,1.297 L50.878,1.168 C50.621,1.523 50.549,0.932 50.31,1.344 L50.258,1.168 L50.137,1.318 L50.087,1.086 L50.055,1.457 L49.9,1.244 L49.872,1.371 C49.589,0.975 49.455,1.366 49.144,1.097 L49.261,1.374 C48.877,2.109 47.9,1.381 47.325,1.883 L47.268,1.65 L47.079,2.006 C46.878,1.875 47.106,1.783 47.024,1.683 C46.772,1.902 47.007,2.057 46.692,2.231 C46.47,2.134 46.697,2.044 46.754,1.938 C46.472,2.152 46.046,2.426 45.781,2.373 L45.8,2.458 C45.623,2.629 45.314,2.617 45.085,2.707 C45.056,2.602 45.107,2.566 45.157,2.525 C45.069,2.539 44.93,2.506 44.896,2.634 L44.917,2.41 C44.726,2.43 44.441,2.719 44.322,2.504 C44.375,2.584 44.424,2.756 44.265,2.795 C44.062,2.482 43.894,3.068 43.588,2.984 C43.588,2.89 43.76,2.807 43.707,2.82 C43.554,2.775 43.502,2.979 43.433,3.126 L43.416,2.976 L42.92,3.38 C42.711,3.07 42.406,3.633 42.354,3.371 C42.146,3.436 42.579,3.457 42.337,3.593 C42.215,3.475 42.132,3.749 42.06,3.523 L42.077,3.488 L41.905,3.571 L41.937,3.313 C41.799,3.418 41.769,3.68 41.824,3.848 C41.633,3.782 41.464,3.96 41.321,3.787 L41.355,3.714 C40.98,3.957 40.443,3.375 40.264,3.867 L40.259,3.775 L40,3.857 L39.995,3.672 L39.678,4.083 L39.637,3.971 C39.338,4.025 38.937,4.27 38.603,4.455 L38.631,4.382 C38.32,4.718 38.219,4.438 37.99,4.681 L38,4.621 L37.75,4.736 L37.762,4.606 C37.675,4.922 37.095,4.532 37.295,4.681 C37.236,4.83 37.11,5.035 37.137,5.183 C36.867,5.314 37.008,5.072 36.798,5.053 C36.594,5.129 36.644,5.331 36.33,5.352 L36.288,5.241 C36.17,5.314 36.127,5.426 35.959,5.52 L35.988,5.445 C35.805,5.796 35.487,5.281 35.478,5.854 C35.319,5.818 35.123,5.984 35.032,5.764 C34.741,6.057 34.506,6.268 34.201,6.522 C33.979,6.193 34.139,6.579 33.832,6.481 L33.94,6.662 C33.464,6.926 32.675,6.737 32.172,7.079 L32.065,6.899 L32.059,7.158 C31.437,7.359 30.638,7.645 30.184,7.891 C30.085,8.068 29.98,8.414 29.708,8.475 L29.719,8.437 C29.366,8.769 28.978,9.082 28.473,9.22 C28.459,9.127 28.385,9.097 28.407,9.02 C28.413,9.281 28.151,9.173 28.052,9.22 L28.24,9.296 C28.21,9.54 27.935,9.472 27.796,9.374 L27.704,9.681 L27.625,9.626 L27.644,9.74 L27.403,9.557 C27.38,9.634 27.149,9.842 27.197,10.116 C27.132,10.048 26.909,10.087 27.03,9.964 L26.257,10.296 L26.419,10.317 C26.536,10.489 26.386,10.73 26.228,10.715 C26.289,10.48 26.093,10.449 25.951,10.354 C25.911,10.51 26.13,10.463 26.136,10.594 C26.084,10.789 25.862,11.007 25.751,10.963 L25.781,10.847 C25.655,11.014 25.394,10.746 25.239,10.86 C25.177,11.093 24.99,11.026 25.202,11.317 C25.028,11.507 24.997,11.155 24.91,11.168 C24.898,11.375 24.545,11.458 24.412,11.324 C24.569,11.846 23.742,11.507 23.929,11.913 L23.625,11.804 C23.681,11.908 23.786,12.158 23.669,12.283 C23.469,12.254 23.392,12.059 23.288,11.977 L23.431,12.407 C22.405,12.454 21.585,13.366 20.556,13.585 C20.24,13.905 19.892,14.378 19.43,14.606 L19.447,14.531 L18.955,14.709 L19.377,14.675 C19.313,14.778 19.288,14.897 19.195,14.949 C18.627,15.101 17.874,15.326 17.449,15.918 C17.38,16.594 16.95,15.722 16.816,16.272 L16.786,16.085 C16.51,16.489 16.358,16.706 16.158,17.216 C15.908,16.777 15.923,17.4 15.802,17.158 L15.891,17.348 C15.735,17.305 15.512,17.409 15.455,17.27 L15.441,17.596 L15.303,17.436 C15.074,17.58 14.708,18.053 14.34,17.792 C13.984,18.432 13.112,19.014 12.397,19.455 C12.409,19.664 12.224,19.824 12.085,19.955 L11.77,19.881 C11.664,20.062 11.697,20.434 11.456,20.418 L11.432,20.355 C11.308,20.517 11.078,20.527 11.076,20.821 C10.898,20.942 10.649,20.967 10.556,20.744 C10.799,21.082 10.157,20.977 10.158,20.979 C10.131,20.891 0.973,27.446 0.768,31.075 C0.847,31.282 0.763,31.55 1.005,31.655 C0.922,31.843 0.601,31.649 0.72,31.819 C1.004,31.735 1.039,32.25 1.402,32.255 L1.321,32.403 C1.401,32.528 1.362,32.132 1.521,32.345 L1.283,32.043 C1.418,31.992 1.528,31.997 1.652,32.058 C1.635,31.866 1.326,31.443 1.699,31.396 L1.656,31.471 C1.819,31.292 1.936,31.543 2.017,31.553 L1.976,31.588 L2.258,31.584 C2.056,31.599 2.094,31.997 2.174,31.888 C2.454,31.765 2.055,31.874 2.175,31.692 C2.258,31.585 2.375,31.756 2.454,31.844 L2.616,31.666 C2.735,31.8 2.496,31.77 2.694,31.834 L2.778,31.49 C3.133,31.775 2.862,31.107 3.257,31.316 C3.177,31.541 3.377,31.41 3.454,31.538 L3.817,31.153 C3.896,31.162 3.814,31.347 3.855,31.277 C4.013,31.297 3.897,31.084 3.937,31.048 C4.056,31.107 4.218,30.769 4.414,30.995 C4.808,30.891 4.26,30.616 4.617,30.508 C4.774,30.609 4.456,30.724 4.693,30.757 L4.895,30.467 C4.933,30.552 5.049,30.726 4.929,30.789 C5.758,30.304 6.789,30.679 7.251,29.935 C7.487,30.013 7.285,30.098 7.319,30.259 C7.581,29.636 8.279,30.033 8.647,29.667 L8.534,29.528 C9.446,29.462 9.859,28.616 10.637,28.264 L10.481,28.233 C10.455,28.03 10.583,27.899 10.635,27.753 C10.709,27.808 10.807,28.104 10.942,27.896 C10.862,27.878 10.743,27.894 10.709,27.808 C11.549,27.708 12.612,26.675 13.637,26.111 C14.759,25.019 16.325,24.283 17.459,23.256 C17.283,23.408 17.097,22.995 17.297,22.971 C18.118,23.268 17.897,22.378 18.594,22.5 C19.178,21.787 20.197,21.852 20.54,20.904 L20.674,21.066 C20.829,21.074 20.772,20.933 20.866,20.842 L20.897,20.892 C21.191,20.779 21.37,20.386 21.572,20.369 L21.447,20.167 C21.588,20.052 21.63,20.268 21.709,20.053 L21.772,20.155 L21.827,19.849 C22.043,20.203 22.275,19.593 22.501,19.668 C22.657,19.479 22.931,19.082 23.276,18.955 C23.449,19.096 23.814,18.853 24.105,18.791 C24.533,18.455 25.132,17.947 25.766,17.661 L25.613,17.438 L25.759,17.33 L25.817,17.434 C26.099,17.623 26.124,17.139 26.349,17.227 C26.142,17.067 26.22,17.258 26.129,17.307 C25.934,17.274 25.919,16.979 26.16,16.989 L26.188,17.044 L26.231,16.853 C26.354,17.023 26.512,17.044 26.635,17.213 C27.116,16.864 27.277,16.345 27.853,16.113 C27.919,16.346 28.2,15.835 28.301,16.249 C28.539,15.927 28.083,15.997 28.08,15.661 C28.172,15.613 28.208,15.46 28.301,15.581 C28.308,15.689 28.497,15.752 28.445,15.827 L28.639,15.673 L28.648,15.802 C28.957,15.335 29.542,15.575 29.819,15.159 C29.776,15.015 29.642,15.208 29.598,15.064 C29.848,14.586 30.079,15.101 30.345,14.716 L30.369,14.934 C30.419,14.748 30.386,14.564 30.662,14.602 C30.813,14.793 30.591,14.864 30.551,15.013 C30.692,14.948 31.001,14.707 30.791,14.575 C30.915,14.417 31.077,14.573 31.196,14.581 C31.17,14.53 30.967,14.526 31.007,14.376 C31.293,14.373 31.63,14.183 31.908,14.056 L31.986,14.215 C32.055,13.823 32.285,14.307 32.549,14.086" id="Shape"></path>
                <path d="M47.026,6.507 L46.897,6.512 C46.915,6.56 46.927,6.621 46.892,6.694 L47.026,6.507 Z" id="Shape"></path>
                <path d="M41.441,8.381 L41.425,8.457 L41.441,8.381 Z" id="Shape"></path>
                <path d="M40.285,9.328 C40.359,9.238 40.252,9.217 40.181,9.182 C40.199,9.227 40.224,9.278 40.285,9.328" id="Shape"></path>
                <path d="M50.027,4.902 L50.026,5.011 L50.027,4.902 Z" id="Shape"></path>
                <path d="M59.076,3.061 L59.032,3.03 L59.076,3.061 Z" id="Shape"></path>
                <path d="M58.508,2.763 L58.411,2.813 L58.508,2.763 Z" id="Shape"></path>
                <path d="M47.906,5.646 L47.838,5.749 L47.906,5.646 Z" id="Shape"></path>
                <polygon id="Shape" points="58.315 2.879 58.182 2.873 58.188 2.918"></polygon>
                <path d="M59.24,3.066 L59.076,3.06 C59.148,3.114 59.199,3.109 59.24,3.066" id="Shape"></path>
                <path d="M53.24,3.727 L53.226,3.735 C53.154,3.862 53.205,3.803 53.24,3.727" id="Shape"></path>
                <polygon id="Shape" points="57.829 3.369 57.811 3.363 57.784 3.435"></polygon>
                <polygon id="Shape" points="59.803 3.078 59.744 3.132 59.821 3.148"></polygon>
                <path d="M55.215,3.676 C55.234,3.583 55.236,3.522 55.225,3.477 C55.185,3.489 55.167,3.533 55.215,3.676" id="Shape"></path>
            </g>
            <g id="Group" transform="translate(10.000000, 85.000000)" fill-rule="nonzero" fill="#FFFFFF">
                <path d="M7.729,10.162 C7.258,10.397 6.317,10.633 5.111,10.633 C2.316,10.633 0.213,8.867 0.213,5.616 C0.213,2.512 2.317,0.409 5.391,0.409 C6.627,0.409 7.407,0.674 7.745,0.85 L7.436,1.894 C6.951,1.66 6.259,1.483 5.436,1.483 C3.112,1.483 1.567,2.968 1.567,5.572 C1.567,7.999 2.964,9.558 5.377,9.558 C6.157,9.558 6.951,9.396 7.466,9.146 L7.729,10.162 Z" id="Shape"></path>
                <polygon id="Shape" points="10.61 0.571 10.61 4.718 15.405 4.718 15.405 0.571 16.7 0.571 16.7 10.485 15.406 10.485 15.406 5.837 10.61 5.837 10.61 10.485 9.331 10.485 9.331 0.571"></polygon>
                <path d="M20.523,7.367 L19.493,10.485 L18.169,10.485 L21.538,0.571 L23.082,0.571 L26.465,10.485 L25.097,10.485 L24.038,7.367 L20.523,7.367 Z M23.774,6.367 L22.803,3.513 C22.583,2.867 22.435,2.278 22.288,1.704 L22.259,1.704 C22.112,2.292 21.95,2.895 21.759,3.498 L20.788,6.367 L23.774,6.367 Z" id="Shape"></path>
                <polygon id="Shape" points="27.921 0.571 29.2 0.571 29.2 9.411 33.436 9.411 33.436 10.485 27.92 10.485 27.92 0.571"></polygon>
                <path d="M36.467,7.367 L35.437,10.485 L34.114,10.485 L37.482,0.571 L39.026,0.571 L42.41,10.485 L41.042,10.485 L39.982,7.367 L36.467,7.367 Z M39.717,6.367 L38.746,3.513 C38.525,2.867 38.379,2.278 38.231,1.704 L38.202,1.704 C38.055,2.292 37.893,2.895 37.702,3.498 L36.731,6.367 L39.717,6.367 Z" id="Shape"></path>
                <path d="M43.863,0.703 C44.422,0.586 45.304,0.498 46.202,0.498 C47.481,0.498 48.306,0.719 48.923,1.219 C49.438,1.601 49.747,2.19 49.747,2.969 C49.747,3.925 49.114,4.764 48.07,5.146 L48.07,5.175 C49.011,5.41 50.114,6.191 50.114,7.661 C50.114,8.515 49.776,9.161 49.276,9.646 C48.585,10.279 47.466,10.573 45.848,10.573 C44.965,10.573 44.289,10.514 43.863,10.456 L43.863,0.703 Z M45.143,4.764 L46.305,4.764 C47.659,4.764 48.452,4.058 48.452,3.102 C48.452,1.94 47.569,1.484 46.275,1.484 C45.686,1.484 45.348,1.528 45.142,1.572 L45.142,4.764 L45.143,4.764 Z M45.143,9.515 C45.393,9.559 45.761,9.574 46.217,9.574 C47.54,9.574 48.762,9.089 48.762,7.647 C48.762,6.293 47.6,5.735 46.202,5.735 L45.142,5.735 L45.142,9.515 L45.143,9.515 Z" id="Shape"></path>
                <path d="M51.835,0.703 C52.481,0.571 53.408,0.498 54.291,0.498 C55.659,0.498 56.542,0.748 57.159,1.307 C57.659,1.748 57.939,2.425 57.939,3.19 C57.939,4.5 57.115,5.367 56.071,5.72 L56.071,5.764 C56.836,6.029 57.292,6.735 57.527,7.764 C57.85,9.147 58.086,10.103 58.292,10.486 L56.969,10.486 C56.807,10.207 56.586,9.353 56.307,8.118 C56.013,6.75 55.483,6.235 54.321,6.191 L53.115,6.191 L53.115,10.486 L51.836,10.486 L51.836,0.703 L51.835,0.703 Z M53.114,5.22 L54.424,5.22 C55.792,5.22 56.659,4.469 56.659,3.337 C56.659,2.057 55.732,1.498 54.38,1.483 C53.762,1.483 53.32,1.542 53.114,1.6 L53.114,5.22 Z" id="Shape"></path>
                <polygon id="Shape" points="64.882 5.837 61.028 5.837 61.028 9.411 65.323 9.411 65.323 10.485 59.749 10.485 59.749 0.571 65.103 0.571 65.103 1.644 61.028 1.644 61.028 4.778 64.882 4.778"></polygon>
            </g>
        </g>
    </g>
</svg>