<?xml version="1.0" encoding="utf-8"?>
<!-- Generator: Adobe Illustrator 17.0.0, SVG Export Plug-In . SVG Version: 6.00 Build 0)  -->
<!DOCTYPE svg PUBLIC "-//W3C//DTD SVG 1.1//EN" "http://www.w3.org/Graphics/SVG/1.1/DTD/svg11.dtd">
<svg version="1.1" xmlns="http://www.w3.org/2000/svg" xmlns:xlink="http://www.w3.org/1999/xlink" x="0px" y="0px" width="85.04px"
	 height="113.386px" viewBox="0 0 85.04 113.386" enable-background="new 0 0 85.04 113.386" xml:space="preserve">
<g id="Calque_2" display="none">
	<rect x="0" y="0" display="inline" fill="none" stroke="#000000" stroke-miterlimit="10" width="85.04" height="113.386"/>
</g>
<g id="Calque_1">
	<path fill="none" stroke="#D6AD00" d="M52.31,31.67"/>
	<g>
		<path fill="none" stroke="#000000" d="M41.566,28.339"/>
		<g>
			<polygon fill="none" stroke="#000000" points="53.539,34.094 50.013,23.94 46.274,35.745 			"/>
			<polyline fill="none" stroke="#000000" points="53.703,34.298 47.477,62.471 41.558,62.471 			"/>
			<line fill="none" stroke="#000000" x1="46.274" y1="35.745" x2="41.558" y2="62.471"/>
			<polyline fill="none" stroke="#000000" points="50.141,23.22 39.79,30.036 39.306,33.935 46.274,35.745 			"/>
			<polyline fill="none" stroke="#000000" points="39.314,33.935 37.624,43.271 37.832,45.486 			"/>
		</g>
		<polyline fill="none" stroke="#000000" points="27.558,13.748 35.677,22.606 39.806,66.45 37.546,68.276 33.316,25.978 
			27.558,13.748 		"/>
		<polyline fill="none" stroke="#000000" points="37.546,68.276 30.063,72.794 30.063,72.794 24.937,72.517 22.434,25.745 
			22.522,25.539 27.558,13.748 26.582,27.834 33.316,25.978 35.677,22.606 		"/>
		<polyline fill="none" stroke="#000000" points="30.063,72.794 26.465,28.079 22.434,25.745 		"/>
		<polyline fill="none" stroke="#000000" points="67.959,12.797 64.846,13.767 66.196,20.083 70.974,21.238 71.855,17.595 
			67.959,12.797 		"/>
		<line fill="none" stroke="#000000" x1="64.705" y1="13.704" x2="52.861" y2="32.143"/>
		<line fill="none" stroke="#000000" x1="66.196" y1="20.083" x2="50.986" y2="46.037"/>
		<line fill="none" stroke="#000000" x1="70.905" y1="21.563" x2="48.08" y2="59.651"/>
	</g>
</g>
<g id="Calque_3">
	<polygon fill="#FFFFFF" points="47.421,22.267 50.453,21.238 50.775,22.19 48.343,23.798 	"/>
	<polygon fill="#FFFFFF" points="44.171,35.745 45.718,36.126 45.453,37.532 	"/>
	<g>
		<path d="M65.186,54.761l-0.007-0.109L65.186,54.761z"/>
		<path d="M59.257,55.435l0.053-0.066L59.257,55.435z"/>
		<path d="M68.722,54.467l-0.005,0.026c0.056-0.004,0.128-0.008,0.248-0.018L68.722,54.467z"/>
		<path d="M47,58.888l0.072-0.035L47,58.888z"/>
		<path d="M54.232,56.69l-0.074,0.102C54.207,56.785,54.24,56.765,54.232,56.69z"/>
		<path d="M70.841,56.505l-0.116-0.141C70.734,56.431,70.778,56.495,70.841,56.505z"/>
		<path d="M74.249,55.577l-0.012-0.035L74.249,55.577z"/>
		<path d="M72.835,55.061l-0.093,0.075C72.782,55.128,72.835,55.124,72.835,55.061z"/>
		<path d="M72.697,55.179l0.045-0.043L72.697,55.179z"/>
		<path d="M9.769,85.343c-0.079,0.067-0.058,0.213-0.055,0.346L9.769,85.343z"/>
		<path d="M36.626,63.894l-0.011-0.068L36.626,63.894z"/>
		<path d="M10.639,86.396l-0.075,0.027L10.639,86.396z"/>
		<path d="M69.084,57.183c-0.076,0.167-0.307,0.016-0.281,0.162C68.902,57.308,69.068,57.398,69.084,57.183z"/>
		<path d="M37.445,70.095l-0.052,0.043L37.445,70.095z"/>
		<polygon points="10.639,86.396 10.726,86.362 10.652,86.326 		"/>
		<polygon points="26.446,70.188 26.449,70.185 26.453,70.147 		"/>
		<path d="M25.787,70.353l0.081-0.12C25.8,70.263,25.785,70.305,25.787,70.353z"/>
		<path d="M9.714,85.688l-0.032,0.197L9.714,85.688z"/>
		<path d="M20.432,74.624l0.038-0.055L20.432,74.624z"/>
		<path d="M54.718,56.625l0.063,0.015L54.718,56.625z"/>
		<polygon points="51.748,62.03 51.744,62.032 51.746,62.036 		"/>
		<path d="M51.904,61.769c-0.084-0.006-0.146,0.135-0.156,0.262C51.816,62.004,51.873,61.948,51.904,61.769z"/>
		<path d="M51.232,62.144l0.034,0.008L51.232,62.144z"/>
		<polygon points="55.897,60.778 55.892,60.761 55.894,60.776 		"/>
		<path d="M54.996,61.097l-0.086-0.043L54.996,61.097z"/>
		<polygon points="49.181,63.448 49.179,63.44 49.175,63.444 		"/>
		<path d="M41.548,68.353c0.736-0.531,1.65-1.31,2.493-1.626c0.034-0.37,0.284-0.507,0.511-0.696l0.211,0.363l0.154-0.225
			c0.142,0.07-0.13,0.15,0.094,0.219l-0.033-0.275c0.082,0.127,0.589-0.18,0.363,0.268l0.827-0.406
			c0.187-0.078-0.042-0.371,0.204-0.377c0.094,0.092-0.037,0.113,0.043,0.24c0.745,0.008,0.375-1.054,1.034-1.135l-0.026,0.072
			c0.054-0.146,0.248-0.215,0.227-0.27c-0.248-0.356-0.012,0.256-0.291,0.103c-0.131-0.331,0.144-0.271,0.021-0.513
			c0.19,0.058,0.188-0.162,0.297-0.233c0.294,0.115,0.522-0.158,0.786,0.032c0.055-0.147,0.027-0.519,0.236-0.625
			c0.263,0.189,0.067,0.26,0.317,0.265l-0.048-0.206c0.184-0.043,0.18,0.021,0.211,0.113c0.187-0.071,0.041-0.329,0.322-0.307
			l-0.05,0.241c0.14-0.146,0.222-0.144,0.466-0.229c0.039,0.11-0.058,0.145-0.143,0.144c0.246,0.226,0.17-0.219,0.252-0.218
			c-0.053-0.076-0.234-0.041-0.23-0.264c0.132-0.018,0.143-0.372,0.322-0.176l-0.055,0.235c0.186-0.248,0.035-0.29,0.352-0.327
			l0.025,0.107c0.083-0.314,0.41-0.182,0.685-0.266l-0.03,0.071c0.083-0.106,0.074-0.3,0.137-0.309
			c-0.195-0.053-0.176-0.125-0.264-0.305c0.328,0.24,0.166-0.486,0.572-0.426c0.037,0.113,0.008,0.278-0.127,0.195
			c0.014,0.37,0.107,0.652-0.033,0.881c0.097-0.123,0.225-0.225,0.246-0.076l-0.079-0.317l0.196-0.063
			c-0.041-0.204-0.275-0.257-0.147-0.449c0.16-0.174,0.226,0.271,0.204,0.122c0.226-0.225-0.012-0.369,0.29-0.37l-0.083,0.088
			c0.236,0.051,0.445-0.23,0.639,0.115c0.002,0.092,0.039,0.205-0.044,0.201l-0.019-0.057c-0.106,0.346,0.145-0.139,0.206,0.217
			c-0.09-0.191,0.191-0.248,0.324-0.256l-0.123-0.213c0.15-0.826,0.145,0.455,0.504,0.219c0.191-0.246-0.117-0.027-0.021-0.243
			c0.181-0.026,0.316,0.151,0.526-0.04c0.099,0.064,0.282,0.132,0.384,0.381c0.113-0.158,0.498-0.035,0.498-0.312
			c-0.334-0.129-0.168,0.345-0.583,0.119l-0.003-0.277c0.213-0.055,0.438-0.266,0.615-0.223l-0.082-0.158
			c0.267-0.19,0.269-0.467,0.587-0.486c0.114,0.215-0.069,0.23-0.187,0.291c0.25,0.121,0.202-0.049,0.517-0.068
			c0.083,0.193-0.199,0.049-0.167,0.256l0.3-0.167l0.015,0.04c-0.064-0.348,0.254-0.049,0.419-0.212
			c0.468-0.15,0.394-0.624,0.569-0.977c0.1,0.067,0.147,0.146,0.145,0.241c-0.163-0.111-0.105,0-0.119,0.099
			c0.148-0.087,0.449,0.218,0.403,0.38c0.22-0.178-0.144-0.146-0.023-0.301l0.35-0.09c-0.093-0.158-0.225-0.156-0.089-0.346
			c0.137-0.096,0.22-0.086,0.42-0.137c-0.003,0.092,0.141,0.24-0.01,0.277c0.113,0.034,0.264-0.006,0.271-0.191
			c-0.262-0.09,0.311-0.259,0.07-0.477l0.264,0.1c-0.051,0.01-0.022,0.127-0.105,0.111c0.14,0.244,0.157-0.123,0.226-0.167
			c0.093,0.03,0.3,0,0.345,0.097c0.049-0.09,0.233-0.078,0.303,0.047c0.089-0.078-0.039-0.174-0.035-0.266l0.356-0.07
			c0.06,0.141,0.201,0.535,0.165,0.605c0.094-0.171-0.074-0.442,0.129-0.48c-0.035,0.31,0.322,0.146,0.251,0.525
			c0.169,0.178,0.488,0.083,0.646-0.038c0.05-0.253-0.227-0.077-0.276-0.31c0.479-0.216,0.346-0.858,0.746-0.846l-0.113-0.04
			c0.2-0.191,0.182-0.155,0.268-0.387c0.009,0.302,0.457,0.698,0.818,0.538c-0.002-0.154-0.278-0.219-0.273-0.463l0.244-0.11
			l-0.016,0.118c0.201-0.166,0.51,0.266,0.498-0.08l0.33,0.371l-0.135-0.16c0-0.148,0.247-0.244,0.289-0.311
			c0.225-0.213,0.349-0.109,0.533,0.046c-0.072-0.11-0.246-0.357-0.048-0.443c0.1,0.467,0.472,0.083,0.517,0.327
			c0.083-0.023,0.262,0.092,0.23-0.104l0.047,0.293c-0.067-0.411,0.243-0.455,0.461-0.575c0.059,0.566,0.248-0.095,0.452,0.388
			c-0.032-0.387,0.382-0.232,0.362-0.562c0.176-0.055,0.225,0.299,0.293,0.411l0.057-0.158c0.123,0.158,0.463,0.113,0.683,0.194
			l0.126-0.365l0.097,0.141c0.014-0.09,0.162-0.16,0.045-0.271l0.104,0.005c-0.054-0.365,0.125-0.121,0.305-0.305l0.021,0.194
			c0.103-0.011,0.09,0.183,0.166,0.296c-0.089-0.081,0.258-0.705-0.042-0.83c-0.045-0.146,0.099-0.277,0.21-0.227l0.113,0.319
			l0.064-0.362c0.152-0.072,0.25,0.128,0.386,0.147c-0.128,0.039-0.192,0.672,0.141,0.615c-0.17,0.069-0.227,0.264-0.306,0.346
			c0.07,0.002,0.108,0.029,0.024,0.184c0.242-0.139,0.054-0.213,0.305-0.292c0.032,0.296,0.117,0.38,0.356,0.449l-0.199-0.192
			l0.018-0.083c-0.067-0.023-0.093-0.066-0.123-0.177c0.051-0.005,0.246-0.408,0.312-0.236c-0.326-0.42,0.404-0.419,0.199-0.672
			c0.018-0.091,0.197-0.133,0.237,0.012c-0.187,0.254,0.208,0.311,0.2,0.523c0.07-0.097-0.198-0.195-0.106-0.324
			c0.127-0.035,0.244,0.133,0.329,0.213l-0.046,0.063l0.217,0.104c0.013-0.152-0.226-0.223-0.053-0.324
			c0.058,0.053,0.229-0.049,0.239,0.068c-0.062,0.217,0.036,0.475-0.112,0.549c0.127-0.041,0.531-0.134,0.33-0.385l0.158-0.013
			c-0.113-0.11-0.414-0.296-0.107-0.382l0.003,0.061l0.19-0.255l0.112,0.14c-0.011-0.074,0.014-0.148,0.095-0.156
			c0.031,0.087,0.111,0.109,0.119,0.23c0.23-0.051,0.195-0.189,0.217-0.281c0.128-0.032,0.183,0.027,0.143,0.207
			c0.183,0.025,0.492-0.038,0.627,0.107c0.226-0.15-0.053-0.059,0.065-0.27c0.259,0.502,0.809,0.137,1.196,0.041
			c-0.144-0.442,0.101-0.059,0.141-0.478c-0.073,0.149,0.398,0.321,0.066,0.477l0.205-0.065c0.16,0.237-0.33,0.215-0.09,0.538
			c0.23-0.033,0.348-0.54,0.635-0.396c-0.07,0.328,0.205-0.123,0.16,0.234c-0.05,0.121-0.129,0.092-0.204,0.123l0.052,0.059
			c0.514,0.053,0.124-0.391,0.378-0.631c0.309-0.066,0.259,0.232,0.286,0.383c0.053,0.059,0.206-0.004,0.283-0.096
			c-0.178,0.213-0.361-0.172-0.285-0.382c0.158,0.355,0.464-0.007,0.543-0.158c-0.466-0.35-0.309,0.007-0.756-0.375
			c-0.051,0.12-0.021,0.447-0.281,0.332c0.146-0.174-0.023-0.182-0.071-0.232c0.06,0.186-0.171,0.092-0.243,0.178
			c-0.081-0.148,0.123-0.448-0.141-0.504l-0.016,0.447c-0.107-0.059,0.018-0.328-0.188-0.206c0.098-0.239-0.062-0.356,0.224-0.449
			c-0.374-0.352-0.521,0.246-0.774,0.429l0.047-0.12c-0.047,0.12-0.152,0.122-0.23,0.153c-0.186-0.086,0.125-0.212,0.068-0.329
			l-0.288,0.034l-0.011-0.031c-0.07,0.066-0.141,0.112-0.176,0.005c0.072-0.149,0.094-0.299,0.143-0.419l-0.277,0.332
			c0.02-0.148-0.275-0.232-0.068-0.355l-0.445,0.098l-0.07-0.296c-0.103,0.061-0.1,0.12,0.035,0.146
			c-0.165-0.055-0.631,0.578-0.614-0.018c-0.331,0.268-0.467,0.198-0.874,0.408c0.293-0.32-0.422-0.295-0.088-0.471
			c-0.221-0.1-0.225,0.228-0.379,0.301c-0.166-0.105-0.137-0.407,0.014-0.54l-0.176,0.164l-0.004-0.06l-0.145,0.191
			c-0.199-0.133-0.077-0.293-0.268-0.308l-0.003,0.269l-0.146-0.135c0.062,0.113-0.037,0.182-0.17,0.222l-0.005-0.06l-0.154,0.073
			c0.138-0.182-0.155-0.035-0.109-0.233c-0.139,0.007-0.142,0.01-0.386,0.095l0.071,0.174c-0.302,0.202-0.055-0.267-0.321-0.242
			l0.049,0.202c-0.436-0.291-0.613,0.29-0.93,0.107c0.152-0.07,0.074-0.305,0.079-0.244c-0.229,0.108-0.635,0.11-0.843,0.396
			c-0.142-0.28-0.18-0.365-0.46-0.446c-0.183,0.058-0.206,0.09-0.233,0.274c-0.201-0.076-0.507,0.163-0.558-0.049
			c-0.007,0.178-0.167-0.002-0.239,0.164l-0.037-0.086l0.055,0.203c-0.411-0.393-0.484,0.369-0.889,0.036l0.045-0.066l-0.119,0.108
			c-0.041-0.085,0.004-0.152-0.014-0.27l-0.641,0.093l0.158,0.129c-0.13,0.047-0.175,0.263-0.355,0.17
			c0.186-0.357-0.212,0.031-0.305-0.196l0.119-0.108c-0.183,0.058-0.183,0.058-0.121,0.26c-0.223,0.12-0.254-0.354-0.426-0.09
			l0.16-0.023c0.074,0.109,0,0.301-0.105,0.316c-0.033-0.027-0.129-0.101-0.055-0.143c-0.17,0.117-0.481,0.066-0.543,0.17
			c-0.114-0.035-0.116-0.189-0.074-0.257c-0.356,0.284-0.191,0.008-0.547,0.29l-0.022-0.114l-0.103,0.172l-0.256-0.191l0.107,0.132
			c-0.127,0.055-0.188,0.158-0.357,0.131l0.018-0.188c-0.346,0.193-0.504-0.17-0.793,0.162l0.03-0.129
			c-0.257,0.355-0.329-0.236-0.569,0.176l-0.051-0.176l-0.121,0.15l-0.05-0.232l-0.032,0.371l-0.156-0.213l-0.027,0.127
			c-0.283-0.396-0.417-0.005-0.729-0.274l0.118,0.277c-0.384,0.735-1.362,0.007-1.935,0.509l-0.058-0.232l-0.188,0.355
			c-0.201-0.131,0.026-0.223-0.056-0.323c-0.252,0.219-0.016,0.374-0.332,0.548c-0.221-0.097,0.006-0.187,0.063-0.293
			c-0.282,0.214-0.708,0.488-0.973,0.435l0.019,0.085c-0.177,0.171-0.487,0.159-0.715,0.249c-0.029-0.105,0.021-0.141,0.072-0.182
			c-0.088,0.014-0.227-0.02-0.262,0.108l0.022-0.224c-0.192,0.02-0.477,0.309-0.595,0.094c0.053,0.08,0.102,0.252-0.057,0.291
			c-0.204-0.313-0.372,0.273-0.677,0.188c0-0.094,0.172-0.177,0.119-0.163c-0.153-0.045-0.205,0.158-0.275,0.306l-0.016-0.15
			l-0.498,0.404c-0.209-0.31-0.515,0.253-0.567-0.009c-0.208,0.064,0.226,0.086-0.016,0.222c-0.122-0.118-0.205,0.156-0.278-0.07
			l0.018-0.034l-0.172,0.083l0.031-0.259c-0.137,0.105-0.168,0.367-0.112,0.535c-0.191-0.065-0.36,0.112-0.503-0.061l0.033-0.073
			c-0.375,0.243-0.912-0.339-1.09,0.153l-0.005-0.092L49,58.124l-0.005-0.186l-0.317,0.411l-0.041-0.112
			c-0.299,0.055-0.701,0.299-1.035,0.484l0.029-0.073c-0.311,0.336-0.412,0.056-0.641,0.299l0.01-0.06l-0.25,0.115l0.012-0.131
			c-0.087,0.316-0.667-0.073-0.467,0.075c-0.06,0.149-0.186,0.354-0.158,0.502c-0.27,0.131-0.129-0.11-0.339-0.13
			c-0.204,0.076-0.155,0.278-0.468,0.299l-0.042-0.11c-0.118,0.072-0.161,0.185-0.329,0.278l0.028-0.074
			c-0.182,0.351-0.501-0.164-0.51,0.408c-0.159-0.035-0.354,0.131-0.445-0.09c-0.291,0.293-0.526,0.504-0.831,0.758
			c-0.223-0.328-0.062,0.058-0.369-0.041l0.107,0.182c-0.475,0.264-1.264,0.075-1.767,0.417l-0.108-0.181l-0.006,0.26
			c-0.622,0.201-1.42,0.486-1.875,0.732c-0.098,0.178-0.205,0.523-0.475,0.585l0.011-0.038c-0.353,0.332-0.742,0.644-1.246,0.783
			c-0.015-0.093-0.089-0.123-0.066-0.2c0.006,0.261-0.256,0.153-0.355,0.2l0.188,0.076c-0.03,0.244-0.305,0.176-0.444,0.078
			l-0.092,0.307l-0.079-0.055l0.019,0.114l-0.241-0.183c-0.023,0.077-0.254,0.285-0.206,0.559c-0.066-0.068-0.288-0.029-0.167-0.152
			l-0.773,0.332l0.162,0.021c0.117,0.172-0.033,0.414-0.191,0.398c0.061-0.234-0.136-0.266-0.277-0.361
			c-0.04,0.156,0.178,0.109,0.185,0.24c-0.052,0.195-0.274,0.413-0.385,0.369l0.03-0.116c-0.126,0.167-0.387-0.101-0.542,0.013
			c-0.062,0.233-0.249,0.165-0.037,0.456c-0.174,0.191-0.205-0.161-0.292-0.148c-0.012,0.207-0.365,0.29-0.498,0.156
			c0.157,0.523-0.67,0.183-0.483,0.589l-0.304-0.109c0.056,0.104,0.161,0.354,0.044,0.479c-0.2-0.029-0.277-0.224-0.381-0.306
			l0.142,0.43c-1.025,0.047-1.846,0.959-2.875,1.178c-0.316,0.32-0.664,0.793-1.126,1.021l0.017-0.076l-0.492,0.178l0.422-0.034
			c-0.064,0.103-0.089,0.222-0.182,0.274c-0.568,0.152-1.321,0.377-1.746,0.969c-0.069,0.676-0.499-0.196-0.633,0.354l-0.03-0.187
			c-0.276,0.404-0.428,0.621-0.628,1.131c-0.25-0.439-0.235,0.184-0.356-0.058l0.089,0.19c-0.156-0.043-0.379,0.061-0.437-0.078
			l-0.014,0.326l-0.138-0.16c-0.229,0.144-0.595,0.617-0.963,0.356c-0.356,0.64-1.228,1.222-1.943,1.663
			c0.012,0.209-0.172,0.369-0.312,0.5l-0.314-0.074c-0.106,0.181-0.073,0.553-0.315,0.537l-0.024-0.062
			c-0.124,0.161-0.354,0.171-0.356,0.465c-0.178,0.12-0.427,0.146-0.52-0.077c0.244,0.338-0.398,0.233-0.397,0.235
			c-0.027-0.088-9.186,6.467-9.39,10.096c0.079,0.207-0.005,0.475,0.236,0.58c-0.083,0.188-0.403-0.006-0.285,0.164
			c0.284-0.085,0.319,0.431,0.682,0.436l-0.081,0.148c0.08,0.125,0.041-0.271,0.2-0.058l-0.238-0.302
			c0.135-0.051,0.245-0.046,0.369,0.015c-0.017-0.192-0.326-0.615,0.047-0.662l-0.042,0.075c0.163-0.179,0.28,0.072,0.36,0.082
			l-0.041,0.035l0.282-0.004c-0.201,0.015-0.164,0.413-0.084,0.304c0.281-0.123-0.119-0.014,0.002-0.196
			c0.083-0.107,0.2,0.064,0.279,0.152l0.162-0.178c0.119,0.134-0.12,0.105,0.078,0.168l0.084-0.344
			c0.355,0.284,0.083-0.384,0.479-0.174c-0.08,0.225,0.12,0.094,0.197,0.222l0.362-0.385c0.079,0.009-0.003,0.194,0.039,0.124
			c0.158,0.02,0.041-0.193,0.082-0.229c0.119,0.058,0.281-0.279,0.477-0.053c0.394-0.104-0.154-0.379,0.204-0.487
			c0.156,0.1-0.161,0.216,0.075,0.249l0.202-0.29c0.038,0.085,0.154,0.259,0.034,0.322c0.83-0.485,1.86-0.11,2.322-0.854
			c0.236,0.078,0.034,0.163,0.068,0.324c0.262-0.623,0.96-0.226,1.328-0.592l-0.113-0.139c0.913-0.066,1.325-0.912,2.104-1.264
			l-0.157-0.032c-0.025-0.202,0.102-0.334,0.154-0.479c0.074,0.055,0.173,0.352,0.307,0.143c-0.079-0.018-0.199-0.002-0.233-0.088
			c0.841-0.1,1.903-1.133,2.928-1.697c1.122-1.092,2.688-1.828,3.822-2.855c-0.176,0.152-0.362-0.261-0.162-0.285
			c0.821,0.297,0.6-0.593,1.297-0.471c0.583-0.713,1.603-0.648,1.945-1.596l0.134,0.162c0.155,0.008,0.098-0.133,0.192-0.224
			l0.031,0.05c0.294-0.113,0.474-0.506,0.675-0.523l-0.125-0.202c0.14-0.115,0.182,0.101,0.262-0.114l0.062,0.102l0.056-0.306
			c0.216,0.354,0.448-0.256,0.674-0.181c0.156-0.189,0.43-0.586,0.774-0.713c0.174,0.141,0.538-0.102,0.83-0.164
			c0.428-0.336,1.026-0.844,1.661-1.13l-0.153-0.222l0.146-0.109l0.059,0.104c0.282,0.189,0.307-0.295,0.532-0.207
			c-0.206-0.16-0.129,0.031-0.22,0.08c-0.195-0.033-0.21-0.328,0.031-0.318l0.028,0.055l0.042-0.191
			c0.124,0.17,0.281,0.191,0.404,0.36c0.481-0.349,0.642-0.868,1.219-1.1c0.065,0.233,0.347-0.278,0.448,0.136
			c0.237-0.322-0.219-0.252-0.221-0.588c0.092-0.048,0.127-0.201,0.22-0.08c0.008,0.109,0.197,0.171,0.144,0.246l0.194-0.154
			l0.009,0.129c0.309-0.467,0.894-0.227,1.171-0.642c-0.043-0.144-0.177,0.049-0.222-0.094c0.25-0.479,0.481,0.036,0.747-0.349
			l0.024,0.218c0.05-0.186,0.017-0.369,0.293-0.332c0.151,0.191-0.071,0.262-0.111,0.411c0.14-0.065,0.45-0.306,0.24-0.438
			c0.124-0.158,0.286-0.002,0.404,0.006c-0.025-0.051-0.228-0.056-0.189-0.205c0.286-0.003,0.623-0.193,0.901-0.32l0.077,0.159
			C41.054,68.09,41.285,68.573,41.548,68.353z"/>
		<path d="M56.026,60.773l-0.129,0.005c0.017,0.048,0.03,0.109-0.005,0.182L56.026,60.773z"/>
		<path d="M50.441,62.647l-0.016,0.076L50.441,62.647z"/>
		<path d="M49.285,63.595c0.074-0.09-0.034-0.111-0.104-0.146C49.199,63.493,49.222,63.545,49.285,63.595z"/>
		<path d="M59.027,59.169l-0.001,0.109L59.027,59.169z"/>
		<path d="M68.076,57.327l-0.044-0.031L68.076,57.327z"/>
		<path d="M67.507,57.029l-0.097,0.05L67.507,57.029z"/>
		<path d="M56.906,59.912l-0.069,0.102L56.906,59.912z"/>
		<polygon points="67.315,57.146 67.181,57.14 67.188,57.185 		"/>
		<path d="M68.24,57.333l-0.164-0.006C68.148,57.381,68.199,57.376,68.24,57.333z"/>
		<path d="M62.24,57.993l-0.014,0.008C62.154,58.128,62.205,58.069,62.24,57.993z"/>
		<polygon points="66.829,57.636 66.81,57.63 66.784,57.702 		"/>
		<polygon points="68.802,57.345 68.744,57.398 68.82,57.415 		"/>
		<path d="M64.214,57.942c0.018-0.093,0.02-0.154,0.01-0.199C64.183,57.755,64.167,57.8,64.214,57.942z"/>
	</g>
	<polygon points="26.593,14.72 29.015,14.626 27.437,12.751 	"/>
	<polygon points="66.64,12.72 69.312,13.704 68.14,12.22 	"/>
</g>
</svg>
