<?xml version="1.0" encoding="utf-8"?>
<!-- Generator: Adobe Illustrator 21.0.2, SVG Export Plug-In . SVG Version: 6.00 Build 0)  -->
<svg version="1.1" xmlns="http://www.w3.org/2000/svg" xmlns:xlink="http://www.w3.org/1999/xlink" x="0px" y="0px"
	 viewBox="0 0 156.667 185.333" enable-background="new 0 0 156.667 185.333" xml:space="preserve">
<g id="Calque_4">
	<g id="carte-france-contour-V2" opacity="0.5">
		<g id="Calque_3_1_">
			<path id="Shape" fill="#FFFFFF" d="M42.471,56.445c8.166-0.174,16.357,0.787,23.956-2.886c6.779-3.277,11.945-8.92,17.64-13.688
				c0.201-0.169-0.191-1.036,0-1.195c-5.721,4.79-10.879,10.318-17.64,13.688c-7.52,3.749-15.848,2.713-23.956,2.886
				C42.454,55.251,42.471,56.445,42.471,56.445L42.471,56.445L42.471,56.445z"/>
			<path id="Shape_1_" fill="#FFFFFF" d="M84.222,38.573c1.365,2.686,3.198,4.968,5.402,6.888c2.414,2.103,5.227,3.694,7.805,5.548
				c2.807,2.019,5.614,4.009,8.59,5.729c3.069,1.775,6.185,3.455,9.297,5.139c-0.138-0.075,0.151-1.091,0-1.173
				c-3.113-1.683-6.224-3.371-9.297-5.139c-2.978-1.713-5.785-3.709-8.59-5.729c-2.585-1.861-5.359-3.476-7.805-5.548
				c-2.217-1.878-4.047-4.222-5.402-6.888C84.373,37.697,84.068,38.27,84.222,38.573L84.222,38.573L84.222,38.573z"/>
			<path id="Shape_2_" fill="#FFFFFF" d="M116.411,62.342c-1.777,0.46-3.177,2.019-4.364,3.552
				c-1.382,1.786-2.531,3.829-3.569,5.905c-2.24,4.48-2.733,9.258-2.742,14.357c0,0.352,0.008,1.112,0.009,0.305
				c0.005-2.972,0.18-5.91,0.915-8.766c0.549-2.134,1.45-4.087,2.447-5.972c1.648-3.114,4.031-7.388,7.304-8.235
				C116.486,63.469,116.349,62.358,116.411,62.342L116.411,62.342L116.411,62.342z"/>
			<path id="Shape_3_" fill="#FFFFFF" d="M105.74,84.117c-0.17,3.276,0.438,6.256,2.036,9.152c1.984,3.597,4.947,6.554,7.528,9.712
				c-0.191-0.234,0.199-0.952,0-1.195c-2.002-2.449-4.163-4.767-6.011-7.339c-1.835-2.554-3.719-5.917-3.55-9.177
				C105.762,84.91,105.725,84.399,105.74,84.117L105.74,84.117L105.74,84.117z"/>
			<path id="Shape_4_" fill="#FFFFFF" d="M115.463,102.105c-6.232-0.2-10.118,5.659-10.678,11.315c-0.039,0.395,0.039,0.802,0,1.195
				c0.56-5.656,4.446-11.515,10.678-11.315C115.46,103.3,115.485,102.106,115.463,102.105L115.463,102.105L115.463,102.105z"/>
			<path id="Shape_5_" fill="#FFFFFF" d="M104.785,113.739c-5.331-1.146-9.355-5.736-15.089-5.3
				c-2.082,0.158-4.192,0.802-5.13,2.815c-0.862,1.851-0.715,4.166-0.977,6.151c-0.052,0.393,0.052,0.805,0,1.195
				c0.261-1.97,0.198-4.073,0.896-5.957c0.817-2.205,3.102-2.775,5.211-3.009c5.653-0.627,9.845,4.173,15.089,5.3
				C104.712,114.919,104.876,113.759,104.785,113.739L104.785,113.739L104.785,113.739z"/>
			<path id="Shape_6_" fill="#FFFFFF" d="M83.43,117.723c-5.051-2.605-10.365-5.142-15.907-6.507
				c-5.514-1.359-11.306-0.899-16.765-2.577c0.104,0.032-0.12,1.158,0,1.195c5.45,1.675,11.235,1.309,16.765,2.577
				c5.532,1.269,10.89,3.921,15.907,6.507C83.275,118.839,83.599,117.811,83.43,117.723L83.43,117.723L83.43,117.723z"/>
			<path id="Shape_7_" fill="#FFFFFF" d="M52.169,106.964c2.979-4.217,5.879-8.56,7.526-13.494c1.265-3.79,1.568-8.088,0.779-12.018
				c-0.966-4.808-4.019-8.872-7.317-12.36c-3.972-4.2-8.411-7.976-12.622-11.932c0.194,0.182-0.203,1.004,0,1.195
				c3.768,3.54,7.644,6.976,11.324,10.609c3.111,3.071,5.976,6.483,7.659,10.559c3.897,9.438-2.051,18.746-7.348,26.245
				C51.978,106.039,52.354,106.703,52.169,106.964L52.169,106.964L52.169,106.964z"/>
		</g>
	</g>
	<circle cx="77.016" cy="111.627" r="0.837"/>
	<circle stroke="#FFFFFF" cx="77.016" cy="111.627" r="1.823"/>
</g>
<g id="Calque_1">
	<path fill="none" stroke="#D6AD00" d="M92.644,63.737"/>
	<g>
		<path fill="none" stroke="#FFFFFF" d="M81.9,60.406"/>
		<g>
			<polygon fill="none" stroke="#FFFFFF" points="93.872,66.161 90.347,56.006 86.608,67.812 			"/>
			<polyline fill="none" stroke="#FFFFFF" points="94.036,66.365 87.811,94.537 81.892,94.537 			"/>
			<line fill="none" stroke="#FFFFFF" x1="86.608" y1="67.812" x2="81.892" y2="94.537"/>
			<polyline fill="none" stroke="#FFFFFF" points="90.475,55.287 80.123,62.102 79.64,66.002 86.608,67.812 			"/>
			<polyline fill="none" stroke="#FFFFFF" points="79.647,66.002 77.957,75.338 78.166,77.553 			"/>
		</g>
		<polyline fill="none" stroke="#FFFFFF" points="67.891,45.815 76.011,54.673 80.14,98.517 77.88,100.343 73.65,58.044 
			67.891,45.815 		"/>
		<polyline fill="none" stroke="#FFFFFF" points="77.88,100.343 70.397,104.861 70.397,104.861 65.271,104.583 62.767,57.811 
			62.855,57.606 67.891,45.815 66.915,59.901 73.65,58.044 76.011,54.673 		"/>
		<polyline fill="none" stroke="#FFFFFF" points="70.397,104.861 66.799,60.146 62.767,57.811 		"/>
		<polyline fill="none" stroke="#FFFFFF" points="108.292,44.864 105.18,45.833 106.53,52.15 111.308,53.305 112.189,49.662 
			108.292,44.864 		"/>
		<line fill="none" stroke="#FFFFFF" x1="105.038" y1="45.77" x2="93.195" y2="64.209"/>
		<line fill="none" stroke="#FFFFFF" x1="106.53" y1="52.15" x2="91.32" y2="78.103"/>
		<line fill="none" stroke="#FFFFFF" x1="111.239" y1="53.63" x2="88.413" y2="91.718"/>
	</g>
</g>
<g id="Calque_3">
	<polygon fill="#FFFFFF" points="87.755,54.333 90.786,53.305 91.109,54.257 88.677,55.865 	"/>
	<polygon fill="#FFFFFF" points="84.505,67.812 86.052,68.193 85.786,69.599 	"/>
	<g>
		<path fill="#FFFFFF" d="M105.52,86.827l-0.007-0.109L105.52,86.827z"/>
		<path fill="#FFFFFF" d="M99.591,87.501l0.053-0.066L99.591,87.501z"/>
		<path fill="#FFFFFF" d="M109.056,86.534l-0.005,0.026c0.056-0.004,0.128-0.008,0.248-0.018L109.056,86.534z"/>
		<path fill="#FFFFFF" d="M87.333,90.954l0.072-0.035L87.333,90.954z"/>
		<path fill="#FFFFFF" d="M94.566,88.757l-0.074,0.102C94.54,88.852,94.574,88.831,94.566,88.757z"/>
		<path fill="#FFFFFF" d="M111.175,88.572l-0.116-0.141C111.068,88.497,111.112,88.562,111.175,88.572z"/>
		<path fill="#FFFFFF" d="M114.582,87.644l-0.012-0.035L114.582,87.644z"/>
		<path fill="#FFFFFF" d="M113.168,87.127l-0.093,0.075C113.116,87.195,113.169,87.191,113.168,87.127z"/>
		<path fill="#FFFFFF" d="M113.031,87.245l0.045-0.043L113.031,87.245z"/>
		<path fill="#FFFFFF" d="M50.102,117.41c-0.079,0.067-0.058,0.213-0.055,0.346L50.102,117.41z"/>
		<path fill="#FFFFFF" d="M76.959,95.96l-0.011-0.068L76.959,95.96z"/>
		<path fill="#FFFFFF" d="M50.973,118.462l-0.075,0.027L50.973,118.462z"/>
		<path fill="#FFFFFF" d="M109.417,89.249c-0.076,0.167-0.307,0.016-0.281,0.162C109.236,89.374,109.402,89.465,109.417,89.249z"/>
		<path fill="#FFFFFF" d="M77.779,102.161l-0.052,0.043L77.779,102.161z"/>
		<polygon fill="#FFFFFF" points="50.973,118.462 51.059,118.429 50.986,118.393 		"/>
		<polygon fill="#FFFFFF" points="66.78,102.254 66.783,102.251 66.787,102.214 		"/>
		<path fill="#FFFFFF" d="M66.12,102.419l0.081-0.12C66.134,102.329,66.119,102.371,66.12,102.419z"/>
		<path fill="#FFFFFF" d="M50.048,117.755l-0.032,0.197L50.048,117.755z"/>
		<path fill="#FFFFFF" d="M60.766,106.691l0.038-0.055L60.766,106.691z"/>
		<path fill="#FFFFFF" d="M95.052,88.692l0.063,0.015L95.052,88.692z"/>
		<polygon fill="#FFFFFF" points="92.081,94.097 92.077,94.099 92.079,94.103 		"/>
		<path fill="#FFFFFF" d="M92.238,93.835c-0.084-0.006-0.146,0.135-0.156,0.262C92.15,94.071,92.206,94.015,92.238,93.835z"/>
		<path fill="#FFFFFF" d="M91.566,94.21l0.034,0.008L91.566,94.21z"/>
		<polygon fill="#FFFFFF" points="96.231,92.845 96.226,92.827 96.228,92.843 		"/>
		<path fill="#FFFFFF" d="M95.329,93.163l-0.086-0.043L95.329,93.163z"/>
		<polygon fill="#FFFFFF" points="89.515,95.515 89.513,95.507 89.509,95.511 		"/>
		<path fill="#FFFFFF" d="M81.882,100.419c0.736-0.531,1.65-1.31,2.493-1.626c0.034-0.37,0.284-0.507,0.511-0.696l0.211,0.363
			l0.154-0.225c0.142,0.07-0.13,0.15,0.094,0.219l-0.033-0.275c0.082,0.127,0.589-0.18,0.363,0.268l0.827-0.406
			c0.187-0.078-0.042-0.371,0.204-0.377c0.094,0.092-0.037,0.113,0.043,0.24c0.745,0.008,0.375-1.054,1.034-1.135l-0.026,0.072
			c0.054-0.146,0.248-0.215,0.227-0.27c-0.248-0.356-0.012,0.256-0.291,0.103c-0.131-0.331,0.144-0.271,0.021-0.513
			c0.19,0.058,0.188-0.162,0.297-0.233c0.294,0.115,0.522-0.158,0.786,0.032c0.055-0.147,0.027-0.519,0.236-0.625
			c0.263,0.189,0.067,0.26,0.317,0.265l-0.048-0.206c0.185-0.043,0.18,0.021,0.211,0.113c0.187-0.071,0.041-0.329,0.322-0.307
			l-0.05,0.241c0.14-0.146,0.222-0.144,0.466-0.229c0.039,0.11-0.058,0.145-0.143,0.144c0.246,0.227,0.17-0.219,0.252-0.218
			c-0.053-0.076-0.234-0.041-0.23-0.264c0.132-0.018,0.143-0.372,0.322-0.176l-0.055,0.235c0.186-0.248,0.035-0.29,0.352-0.327
			l0.025,0.107c0.083-0.314,0.41-0.182,0.685-0.266l-0.03,0.071c0.083-0.106,0.074-0.3,0.137-0.31
			c-0.195-0.053-0.176-0.125-0.264-0.305c0.328,0.24,0.166-0.486,0.572-0.426c0.037,0.113,0.008,0.278-0.127,0.195
			c0.014,0.37,0.107,0.652-0.033,0.881c0.097-0.123,0.225-0.225,0.246-0.076l-0.079-0.317l0.196-0.063
			c-0.041-0.204-0.275-0.257-0.147-0.449c0.16-0.174,0.226,0.271,0.204,0.122c0.227-0.225-0.012-0.369,0.29-0.37l-0.083,0.088
			c0.236,0.051,0.445-0.23,0.639,0.115c0.002,0.092,0.039,0.205-0.044,0.201l-0.019-0.057c-0.106,0.346,0.145-0.139,0.206,0.217
			c-0.09-0.191,0.191-0.248,0.324-0.256l-0.123-0.213c0.15-0.826,0.145,0.455,0.504,0.219c0.191-0.246-0.117-0.027-0.021-0.243
			c0.181-0.026,0.316,0.151,0.526-0.04c0.099,0.065,0.282,0.132,0.384,0.381c0.113-0.158,0.498-0.035,0.498-0.312
			c-0.334-0.129-0.168,0.345-0.583,0.119l-0.003-0.277c0.213-0.055,0.438-0.266,0.615-0.223l-0.082-0.158
			c0.267-0.19,0.269-0.467,0.587-0.486c0.114,0.215-0.069,0.23-0.187,0.291c0.25,0.121,0.202-0.049,0.517-0.068
			c0.083,0.193-0.199,0.049-0.167,0.256l0.3-0.167l0.015,0.04c-0.064-0.348,0.254-0.049,0.419-0.212
			c0.468-0.15,0.394-0.624,0.569-0.977c0.1,0.067,0.147,0.146,0.145,0.241c-0.163-0.111-0.105,0-0.119,0.099
			c0.148-0.087,0.449,0.218,0.403,0.38c0.22-0.178-0.144-0.146-0.024-0.301l0.35-0.09c-0.093-0.158-0.226-0.156-0.089-0.346
			c0.137-0.096,0.22-0.086,0.42-0.137c-0.003,0.092,0.141,0.24-0.01,0.277c0.113,0.034,0.264-0.006,0.271-0.191
			c-0.262-0.09,0.311-0.259,0.07-0.477l0.264,0.1c-0.051,0.01-0.022,0.127-0.105,0.111c0.14,0.244,0.157-0.123,0.226-0.167
			c0.093,0.03,0.3,0,0.345,0.097c0.049-0.09,0.233-0.078,0.303,0.047c0.089-0.078-0.039-0.174-0.035-0.266l0.356-0.07
			c0.06,0.141,0.201,0.535,0.165,0.605c0.094-0.171-0.074-0.441,0.129-0.48c-0.035,0.31,0.322,0.146,0.251,0.525
			c0.169,0.178,0.488,0.083,0.646-0.038c0.05-0.253-0.227-0.077-0.276-0.31c0.479-0.216,0.346-0.858,0.746-0.846l-0.113-0.04
			c0.2-0.191,0.182-0.155,0.268-0.387c0.009,0.302,0.457,0.698,0.818,0.538c-0.002-0.154-0.278-0.219-0.273-0.463l0.244-0.11
			l-0.016,0.118c0.201-0.166,0.51,0.266,0.498-0.08l0.33,0.371l-0.135-0.16c0-0.148,0.247-0.244,0.289-0.311
			c0.226-0.213,0.349-0.109,0.533,0.046c-0.072-0.11-0.246-0.356-0.048-0.443c0.1,0.467,0.472,0.083,0.517,0.327
			c0.083-0.024,0.262,0.092,0.23-0.104l0.047,0.293c-0.067-0.411,0.243-0.455,0.461-0.575c0.059,0.565,0.248-0.095,0.452,0.388
			c-0.032-0.387,0.382-0.232,0.362-0.562c0.176-0.055,0.225,0.299,0.293,0.411l0.057-0.158c0.123,0.158,0.463,0.113,0.683,0.194
			l0.126-0.365l0.097,0.141c0.014-0.09,0.162-0.16,0.045-0.271l0.104,0.005c-0.054-0.365,0.125-0.121,0.305-0.305l0.021,0.194
			c0.103-0.011,0.09,0.183,0.166,0.296c-0.089-0.081,0.258-0.705-0.042-0.83c-0.045-0.146,0.099-0.277,0.21-0.228l0.113,0.319
			l0.064-0.362c0.152-0.072,0.25,0.128,0.386,0.147c-0.128,0.039-0.192,0.672,0.141,0.615c-0.17,0.069-0.228,0.264-0.306,0.346
			c0.07,0.002,0.108,0.029,0.024,0.184c0.242-0.139,0.054-0.213,0.305-0.292c0.032,0.296,0.117,0.38,0.356,0.449l-0.199-0.192
			l0.018-0.083c-0.067-0.023-0.093-0.066-0.123-0.177c0.051-0.005,0.246-0.408,0.312-0.236c-0.326-0.42,0.404-0.419,0.199-0.672
			c0.018-0.091,0.197-0.133,0.237,0.012c-0.187,0.254,0.208,0.311,0.2,0.523c0.07-0.097-0.198-0.195-0.105-0.324
			c0.127-0.035,0.244,0.133,0.329,0.213l-0.046,0.063l0.217,0.104c0.013-0.152-0.227-0.223-0.053-0.324
			c0.058,0.053,0.229-0.049,0.239,0.068c-0.062,0.217,0.036,0.475-0.112,0.549c0.127-0.041,0.531-0.134,0.33-0.385l0.158-0.013
			c-0.113-0.11-0.414-0.296-0.107-0.382l0.003,0.061l0.19-0.255l0.112,0.14c-0.011-0.074,0.014-0.148,0.095-0.156
			c0.031,0.087,0.111,0.109,0.119,0.23c0.23-0.051,0.195-0.189,0.217-0.281c0.128-0.032,0.183,0.027,0.143,0.207
			c0.183,0.025,0.492-0.038,0.627,0.107c0.227-0.15-0.053-0.059,0.065-0.27c0.259,0.502,0.809,0.137,1.196,0.041
			c-0.144-0.442,0.101-0.059,0.141-0.478c-0.073,0.149,0.398,0.321,0.066,0.477l0.205-0.065c0.16,0.237-0.33,0.215-0.09,0.538
			c0.23-0.033,0.348-0.54,0.635-0.396c-0.07,0.328,0.205-0.123,0.16,0.234c-0.05,0.121-0.129,0.092-0.204,0.123l0.052,0.059
			c0.514,0.053,0.124-0.391,0.378-0.631c0.31-0.066,0.259,0.232,0.286,0.383c0.053,0.059,0.206-0.004,0.283-0.096
			c-0.178,0.213-0.361-0.172-0.285-0.382c0.158,0.355,0.464-0.007,0.543-0.158c-0.466-0.35-0.31,0.007-0.756-0.375
			c-0.051,0.12-0.021,0.447-0.281,0.332c0.146-0.174-0.023-0.182-0.071-0.231c0.06,0.186-0.171,0.092-0.243,0.178
			c-0.081-0.147,0.123-0.448-0.141-0.504l-0.016,0.447c-0.107-0.059,0.018-0.328-0.188-0.206c0.098-0.239-0.062-0.357,0.224-0.449
			c-0.374-0.352-0.521,0.246-0.774,0.429l0.047-0.12c-0.047,0.12-0.152,0.122-0.23,0.153c-0.186-0.086,0.125-0.212,0.068-0.329
			l-0.288,0.034l-0.011-0.031c-0.07,0.066-0.141,0.112-0.176,0.005c0.072-0.149,0.094-0.299,0.143-0.419l-0.277,0.332
			c0.02-0.149-0.275-0.232-0.068-0.356l-0.445,0.098l-0.07-0.296c-0.103,0.061-0.1,0.12,0.035,0.146
			c-0.165-0.055-0.631,0.578-0.614-0.018c-0.331,0.268-0.467,0.198-0.874,0.408c0.293-0.32-0.422-0.295-0.088-0.471
			c-0.221-0.1-0.225,0.228-0.379,0.301c-0.166-0.106-0.137-0.407,0.014-0.54l-0.176,0.164l-0.004-0.06l-0.145,0.191
			c-0.199-0.133-0.077-0.293-0.268-0.308l-0.003,0.269l-0.146-0.135c0.062,0.113-0.037,0.182-0.17,0.222l-0.005-0.06l-0.154,0.073
			c0.138-0.182-0.155-0.035-0.109-0.233c-0.139,0.007-0.142,0.01-0.386,0.095l0.071,0.174c-0.302,0.202-0.055-0.267-0.321-0.242
			l0.049,0.202c-0.436-0.291-0.613,0.29-0.93,0.107c0.152-0.07,0.074-0.305,0.079-0.244c-0.229,0.108-0.635,0.11-0.843,0.396
			c-0.142-0.28-0.18-0.365-0.46-0.446c-0.183,0.058-0.206,0.09-0.233,0.274c-0.201-0.076-0.507,0.163-0.558-0.049
			c-0.007,0.178-0.167-0.002-0.239,0.164l-0.037-0.086l0.055,0.203c-0.411-0.393-0.484,0.369-0.889,0.036l0.045-0.066l-0.119,0.108
			c-0.041-0.085,0.004-0.152-0.014-0.271l-0.641,0.093l0.158,0.129c-0.13,0.047-0.175,0.263-0.355,0.17
			c0.186-0.357-0.212,0.031-0.305-0.196l0.119-0.108c-0.184,0.058-0.184,0.058-0.121,0.26c-0.223,0.12-0.254-0.354-0.426-0.09
			l0.16-0.023c0.074,0.109,0,0.301-0.105,0.316c-0.033-0.027-0.129-0.102-0.055-0.143c-0.17,0.117-0.481,0.066-0.543,0.17
			c-0.114-0.035-0.116-0.189-0.074-0.257c-0.356,0.284-0.191,0.008-0.547,0.29l-0.022-0.114l-0.103,0.172l-0.256-0.191l0.107,0.132
			c-0.127,0.055-0.188,0.158-0.357,0.131l0.018-0.188c-0.346,0.193-0.504-0.17-0.793,0.162l0.03-0.129
			c-0.257,0.355-0.329-0.236-0.569,0.176l-0.051-0.176l-0.121,0.15l-0.05-0.232l-0.032,0.371l-0.156-0.213l-0.027,0.127
			c-0.283-0.396-0.417-0.005-0.729-0.274l0.118,0.277c-0.384,0.735-1.362,0.007-1.936,0.509l-0.058-0.232l-0.188,0.355
			c-0.201-0.131,0.026-0.223-0.056-0.323c-0.252,0.219-0.016,0.374-0.332,0.548c-0.221-0.097,0.006-0.187,0.063-0.293
			c-0.282,0.214-0.708,0.488-0.973,0.436l0.019,0.085c-0.177,0.171-0.487,0.159-0.715,0.249c-0.029-0.105,0.021-0.141,0.072-0.182
			c-0.088,0.014-0.227-0.02-0.262,0.108l0.022-0.224c-0.192,0.02-0.477,0.309-0.595,0.094c0.053,0.08,0.102,0.252-0.057,0.291
			c-0.204-0.313-0.372,0.273-0.677,0.188c0-0.094,0.172-0.177,0.119-0.163c-0.153-0.045-0.205,0.158-0.275,0.306l-0.016-0.15
			l-0.498,0.404c-0.209-0.31-0.515,0.253-0.567-0.009c-0.208,0.064,0.226,0.086-0.016,0.222c-0.122-0.118-0.205,0.156-0.278-0.07
			l0.018-0.034l-0.172,0.083l0.031-0.259c-0.137,0.105-0.168,0.367-0.112,0.535c-0.191-0.065-0.36,0.112-0.503-0.061l0.033-0.073
			c-0.375,0.243-0.912-0.339-1.09,0.153l-0.005-0.092l-0.259,0.082l-0.005-0.186l-0.317,0.411l-0.041-0.112
			c-0.299,0.055-0.701,0.299-1.035,0.484l0.029-0.073c-0.311,0.336-0.412,0.056-0.641,0.299l0.01-0.06l-0.25,0.115l0.012-0.131
			c-0.087,0.316-0.667-0.073-0.467,0.075c-0.06,0.149-0.186,0.354-0.158,0.502c-0.27,0.131-0.129-0.11-0.339-0.13
			c-0.204,0.076-0.155,0.278-0.468,0.299l-0.042-0.11c-0.118,0.072-0.161,0.185-0.329,0.278l0.028-0.074
			c-0.182,0.351-0.501-0.164-0.51,0.408c-0.159-0.035-0.354,0.131-0.445-0.09c-0.291,0.293-0.526,0.504-0.831,0.758
			c-0.223-0.328-0.062,0.058-0.369-0.041l0.107,0.182c-0.475,0.264-1.264,0.075-1.767,0.417l-0.108-0.181l-0.006,0.26
			c-0.622,0.201-1.42,0.486-1.874,0.732c-0.098,0.178-0.205,0.524-0.475,0.585l0.011-0.038c-0.353,0.332-0.742,0.645-1.246,0.783
			c-0.015-0.093-0.089-0.123-0.066-0.2c0.006,0.261-0.256,0.153-0.355,0.2l0.188,0.076c-0.03,0.244-0.305,0.176-0.444,0.078
			l-0.092,0.307l-0.079-0.055l0.019,0.114l-0.241-0.183c-0.023,0.077-0.254,0.285-0.206,0.559c-0.065-0.068-0.288-0.029-0.167-0.152
			l-0.773,0.332l0.162,0.021c0.117,0.172-0.033,0.414-0.191,0.398c0.061-0.234-0.136-0.266-0.277-0.361
			c-0.04,0.156,0.178,0.109,0.185,0.24c-0.052,0.195-0.274,0.413-0.385,0.369l0.03-0.116c-0.126,0.167-0.387-0.101-0.542,0.013
			c-0.062,0.233-0.249,0.165-0.037,0.456c-0.174,0.191-0.205-0.161-0.292-0.148c-0.012,0.207-0.365,0.29-0.497,0.156
			c0.157,0.522-0.67,0.183-0.483,0.589l-0.304-0.109c0.056,0.104,0.161,0.354,0.044,0.479c-0.2-0.029-0.277-0.224-0.381-0.306
			l0.142,0.43c-1.025,0.047-1.846,0.959-2.874,1.178c-0.316,0.32-0.664,0.793-1.126,1.021l0.017-0.076l-0.492,0.178l0.422-0.034
			c-0.064,0.103-0.089,0.222-0.182,0.274c-0.568,0.152-1.321,0.377-1.746,0.969c-0.069,0.676-0.499-0.196-0.633,0.354l-0.03-0.187
			c-0.276,0.404-0.428,0.621-0.628,1.131c-0.25-0.439-0.235,0.184-0.356-0.058l0.089,0.19c-0.156-0.043-0.379,0.061-0.437-0.078
			l-0.014,0.326l-0.138-0.16c-0.229,0.144-0.595,0.617-0.963,0.356c-0.356,0.64-1.228,1.222-1.943,1.663
			c0.012,0.209-0.172,0.369-0.312,0.5l-0.314-0.074c-0.106,0.181-0.073,0.553-0.315,0.537l-0.024-0.062
			c-0.124,0.161-0.354,0.171-0.356,0.465c-0.178,0.12-0.427,0.146-0.52-0.077c0.244,0.338-0.398,0.233-0.397,0.235
			c-0.027-0.088-9.186,6.467-9.39,10.096c0.079,0.207-0.005,0.475,0.236,0.58c-0.083,0.188-0.403-0.006-0.285,0.164
			c0.284-0.085,0.319,0.431,0.682,0.436l-0.081,0.148c0.08,0.125,0.041-0.271,0.2-0.058l-0.238-0.302
			c0.135-0.051,0.245-0.046,0.369,0.015c-0.017-0.192-0.326-0.615,0.047-0.662l-0.042,0.075c0.163-0.179,0.28,0.072,0.36,0.082
			l-0.041,0.035l0.282-0.004c-0.201,0.015-0.164,0.413-0.084,0.304c0.281-0.123-0.119-0.014,0.001-0.196
			c0.083-0.107,0.2,0.064,0.279,0.152l0.162-0.178c0.119,0.134-0.12,0.105,0.078,0.168l0.084-0.344
			c0.355,0.284,0.083-0.384,0.479-0.174c-0.08,0.225,0.12,0.094,0.197,0.222l0.362-0.385c0.079,0.009-0.003,0.194,0.039,0.124
			c0.158,0.02,0.041-0.193,0.082-0.229c0.119,0.058,0.281-0.279,0.477-0.053c0.395-0.104-0.154-0.379,0.204-0.487
			c0.156,0.1-0.161,0.216,0.075,0.249l0.202-0.29c0.038,0.085,0.154,0.259,0.034,0.322c0.83-0.485,1.86-0.11,2.322-0.854
			c0.236,0.078,0.034,0.163,0.068,0.324c0.262-0.623,0.96-0.226,1.328-0.592l-0.113-0.139c0.913-0.066,1.325-0.912,2.104-1.264
			l-0.157-0.032c-0.025-0.202,0.102-0.334,0.154-0.479c0.074,0.055,0.173,0.352,0.307,0.143c-0.079-0.018-0.199-0.002-0.233-0.088
			c0.841-0.1,1.903-1.133,2.928-1.697c1.122-1.092,2.688-1.828,3.822-2.855c-0.176,0.152-0.362-0.261-0.162-0.285
			c0.821,0.297,0.6-0.593,1.297-0.471c0.583-0.713,1.603-0.648,1.945-1.596l0.134,0.162c0.155,0.008,0.098-0.133,0.192-0.224
			l0.031,0.05c0.294-0.113,0.474-0.506,0.675-0.523l-0.125-0.202c0.14-0.115,0.182,0.101,0.262-0.114l0.062,0.102l0.056-0.306
			c0.216,0.354,0.448-0.256,0.674-0.181c0.156-0.189,0.43-0.586,0.774-0.713c0.174,0.141,0.538-0.102,0.83-0.164
			c0.428-0.336,1.026-0.844,1.661-1.13l-0.153-0.222l0.146-0.109l0.059,0.104c0.282,0.189,0.307-0.295,0.532-0.207
			c-0.206-0.16-0.129,0.031-0.22,0.08c-0.195-0.033-0.211-0.328,0.031-0.318l0.028,0.055l0.042-0.191
			c0.124,0.17,0.281,0.191,0.404,0.36c0.481-0.349,0.642-0.868,1.219-1.1c0.065,0.233,0.347-0.278,0.448,0.136
			c0.237-0.322-0.219-0.252-0.221-0.588c0.092-0.048,0.127-0.201,0.22-0.08c0.008,0.109,0.197,0.171,0.145,0.246l0.194-0.154
			l0.009,0.129c0.309-0.467,0.894-0.227,1.171-0.643c-0.043-0.144-0.177,0.049-0.222-0.094c0.25-0.479,0.482,0.036,0.747-0.349
			l0.024,0.218c0.05-0.186,0.017-0.369,0.293-0.332c0.151,0.191-0.071,0.262-0.111,0.411c0.14-0.065,0.45-0.306,0.24-0.438
			c0.124-0.158,0.286-0.002,0.404,0.006c-0.025-0.051-0.228-0.056-0.188-0.205c0.286-0.003,0.623-0.193,0.901-0.32l0.077,0.159
			C81.388,100.157,81.619,100.64,81.882,100.419z"/>
		<path fill="#FFFFFF" d="M96.36,92.84l-0.129,0.005c0.017,0.048,0.03,0.109-0.005,0.182L96.36,92.84z"/>
		<path fill="#FFFFFF" d="M90.775,94.714l-0.016,0.076L90.775,94.714z"/>
		<path fill="#FFFFFF" d="M89.619,95.661c0.074-0.09-0.034-0.111-0.104-0.146C89.533,95.56,89.556,95.612,89.619,95.661z"/>
		<path fill="#FFFFFF" d="M99.361,91.236l-0.001,0.109L99.361,91.236z"/>
		<path fill="#FFFFFF" d="M108.41,89.394l-0.044-0.031L108.41,89.394z"/>
		<path fill="#FFFFFF" d="M107.841,89.096l-0.097,0.05L107.841,89.096z"/>
		<path fill="#FFFFFF" d="M97.24,91.979l-0.069,0.103L97.24,91.979z"/>
		<polygon fill="#FFFFFF" points="107.649,89.212 107.515,89.206 107.522,89.251 		"/>
		<path fill="#FFFFFF" d="M108.574,89.4l-0.164-0.006C108.482,89.448,108.533,89.443,108.574,89.4z"/>
		<path fill="#FFFFFF" d="M102.574,90.06l-0.014,0.008C102.488,90.195,102.538,90.136,102.574,90.06z"/>
		<polygon fill="#FFFFFF" points="107.162,89.702 107.144,89.697 107.118,89.769 		"/>
		<polygon fill="#FFFFFF" points="109.136,89.411 109.077,89.465 109.154,89.482 		"/>
		<path fill="#FFFFFF" d="M104.548,90.009c0.018-0.093,0.02-0.154,0.01-0.199C104.517,89.822,104.5,89.867,104.548,90.009z"/>
	</g>
	<g>
		<path fill="#FFFFFF" d="M58.061,132.495c-0.471,0.235-1.412,0.471-2.618,0.471c-2.795,0-4.898-1.766-4.898-5.017
			c0-3.104,2.103-5.207,5.178-5.207c1.235,0,2.015,0.265,2.354,0.441l-0.309,1.044c-0.485-0.234-1.177-0.411-2-0.411
			c-2.324,0-3.869,1.485-3.869,4.089c0,2.427,1.397,3.986,3.81,3.986c0.78,0,1.574-0.162,2.089-0.412L58.061,132.495z"/>
		<path fill="#FFFFFF" d="M60.943,122.905v4.147h4.795v-4.147h1.294v9.914h-1.294v-4.648h-4.795v4.648h-1.28v-9.914H60.943z"/>
		<path fill="#FFFFFF" d="M70.856,129.701l-1.03,3.118h-1.324l3.369-9.914h1.544l3.383,9.914h-1.368l-1.059-3.118H70.856z
			 M74.107,128.701l-0.971-2.854c-0.22-0.646-0.368-1.235-0.515-1.809h-0.029c-0.147,0.588-0.309,1.191-0.5,1.794l-0.971,2.869
			H74.107z"/>
		<path fill="#FFFFFF" d="M78.254,122.905h1.279v8.84h4.236v1.074h-5.516V122.905z"/>
		<path fill="#FFFFFF" d="M86.799,129.701l-1.03,3.118h-1.323l3.368-9.914h1.544l3.384,9.914h-1.368l-1.06-3.118H86.799z
			 M90.049,128.701l-0.971-2.854c-0.221-0.646-0.367-1.235-0.515-1.809h-0.029c-0.147,0.588-0.309,1.191-0.5,1.794l-0.971,2.869
			H90.049z"/>
		<path fill="#FFFFFF" d="M94.197,123.036c0.559-0.117,1.441-0.205,2.339-0.205c1.279,0,2.104,0.221,2.721,0.721
			c0.515,0.382,0.824,0.971,0.824,1.75c0,0.956-0.633,1.795-1.677,2.177v0.029c0.941,0.235,2.044,1.016,2.044,2.486
			c0,0.854-0.338,1.5-0.838,1.985c-0.691,0.633-1.81,0.927-3.428,0.927c-0.883,0-1.559-0.059-1.985-0.117V123.036z M95.476,127.097
			h1.162c1.354,0,2.147-0.706,2.147-1.662c0-1.162-0.882-1.618-2.177-1.618c-0.588,0-0.927,0.044-1.133,0.088V127.097z
			 M95.476,131.848c0.25,0.044,0.618,0.059,1.074,0.059c1.323,0,2.545-0.485,2.545-1.927c0-1.354-1.162-1.912-2.56-1.912h-1.06
			V131.848z"/>
		<path fill="#FFFFFF" d="M102.168,123.036c0.647-0.132,1.573-0.205,2.456-0.205c1.368,0,2.251,0.25,2.868,0.809
			c0.501,0.441,0.78,1.118,0.78,1.883c0,1.31-0.824,2.177-1.868,2.53v0.044c0.765,0.265,1.221,0.971,1.456,2
			c0.323,1.383,0.559,2.339,0.765,2.722h-1.323c-0.162-0.279-0.383-1.133-0.662-2.368c-0.295-1.368-0.824-1.883-1.986-1.927h-1.206
			v4.295h-1.279V123.036z M103.448,127.553h1.31c1.368,0,2.235-0.751,2.235-1.883c0-1.28-0.927-1.839-2.279-1.854
			c-0.618,0-1.06,0.059-1.266,0.117V127.553z"/>
		<path fill="#FFFFFF" d="M115.214,128.17h-3.854v3.574h4.295v1.074h-5.574v-9.914h5.354v1.073h-4.075v3.134h3.854V128.17z"/>
	</g>
	<polygon fill="#FFFFFF" points="66.927,46.786 69.349,46.693 67.771,44.818 	"/>
	<polygon fill="#FFFFFF" points="106.974,44.786 109.646,45.77 108.474,44.286 	"/>
</g>
</svg>
