<?xml version="1.0" encoding="utf-8"?>
<!-- Generator: Adobe Illustrator 17.0.0, SVG Export Plug-In . SVG Version: 6.00 Build 0)  -->
<!DOCTYPE svg PUBLIC "-//W3C//DTD SVG 1.1//EN" "http://www.w3.org/Graphics/SVG/1.1/DTD/svg11.dtd">
<svg version="1.1" id="Calque_1" xmlns="http://www.w3.org/2000/svg" xmlns:xlink="http://www.w3.org/1999/xlink" x="0px" y="0px"
	 width="319px" height="342px" viewBox="0 0 319 342" enable-background="new 0 0 319 342" xml:space="preserve">
<title>carte france contour V2</title>
<desc>Created with Sketch.</desc>
<g id="carte-france-contour-V2" opacity="0.5">
	<g id="Calque_3">
		<path id="Shape" fill="#FFFFFF" d="M9,80.5c34.159-0.729,68.423,3.294,100.211-12.073C137.568,54.719,159.18,31.112,183,11.167
			c0.842-0.705-0.798-4.332,0-5c-23.932,20.039-45.508,43.16-73.789,57.26C77.753,79.11,42.916,74.776,9,75.5
			C8.927,75.502,8.998,80.5,9,80.5L9,80.5L9,80.5z"/>
		<path id="Shape_1_" fill="#FFFFFF" d="M183.648,5.74c5.712,11.237,13.377,20.78,22.596,28.814
			c10.096,8.798,21.865,15.452,32.651,23.209c11.744,8.446,23.486,16.77,35.935,23.966c12.84,7.423,25.871,14.454,38.892,21.495
			c-0.577-0.312,0.633-4.565,0-4.907c-13.023-7.041-26.037-14.1-38.892-21.495c-12.459-7.167-24.2-15.516-35.935-23.966
			c-10.812-7.786-22.417-14.542-32.651-23.209c-9.274-7.854-16.927-17.662-22.596-28.814C184.278,2.073,183.002,4.469,183.648,5.74
			L183.648,5.74L183.648,5.74z"/>
		<path id="Shape_2_" fill="#FFFFFF" d="M318.296,105.167c-7.432,1.924-13.291,8.446-18.256,14.86
			c-5.781,7.47-10.586,16.018-14.929,24.703c-9.371,18.74-11.433,38.726-11.469,60.055c-0.002,1.471,0.033,4.65,0.039,1.275
			c0.02-12.433,0.753-24.721,3.828-36.671c2.298-8.927,6.064-17.098,10.235-24.981c6.892-13.026,16.864-30.903,30.552-34.446
			C318.611,109.882,318.04,105.234,318.296,105.167L318.296,105.167L318.296,105.167z"/>
		<path id="Shape_3_" fill="#FFFFFF" d="M273.66,196.256c-0.711,13.702,1.833,26.168,8.515,38.284
			c8.299,15.048,20.694,27.415,31.492,40.626c-0.801-0.98,0.831-3.983,0-5c-8.374-10.246-17.413-19.94-25.145-30.701
			c-7.678-10.684-15.556-24.75-14.848-38.388C273.751,199.573,273.599,197.432,273.66,196.256L273.66,196.256L273.66,196.256z"/>
		<path id="Shape_4_" fill="#FFFFFF" d="M314.333,271.5c-26.068-0.835-42.324,23.672-44.667,47.333c-0.164,1.653,0.163,3.354,0,5
			c2.343-23.661,18.598-48.169,44.667-47.333C314.318,276.5,314.424,271.503,314.333,271.5L314.333,271.5L314.333,271.5z"/>
		<path id="Shape_5_" fill="#FFFFFF" d="M269.667,320.167c-22.302-4.794-39.133-23.996-63.119-22.172
			c-8.71,0.663-17.535,3.354-21.46,11.776c-3.607,7.742-2.989,17.428-4.088,25.729c-0.217,1.642,0.216,3.368,0,5
			c1.09-8.241,0.83-17.037,3.75-24.917c3.417-9.223,12.975-11.61,21.797-12.588c23.649-2.621,41.183,17.457,63.119,22.172
			C269.361,325.101,270.045,320.248,269.667,320.167L269.667,320.167L269.667,320.167z"/>
		<path id="Shape_6_" fill="#FFFFFF" d="M180.333,336.833c-21.129-10.896-43.359-21.508-66.539-27.221
			c-23.066-5.685-47.294-3.76-70.128-10.779c0.433,0.133-0.502,4.846,0,5c22.798,7.008,46.998,5.474,70.128,10.779
			c23.141,5.307,45.556,16.4,66.539,27.221C179.685,341.499,181.042,337.199,180.333,336.833L180.333,336.833L180.333,336.833z"/>
		<path id="Shape_7_" fill="#FFFFFF" d="M49.566,291.827c12.463-17.64,24.591-35.806,31.482-56.447
			c5.293-15.854,6.56-33.835,3.258-50.273c-4.041-20.111-16.81-37.113-30.608-51.702C37.083,115.837,18.512,100.04,0.9,83.493
			c0.811,0.762-0.851,4.2,0,5c15.762,14.81,31.975,29.18,47.368,44.377c13.014,12.848,24.997,27.119,32.038,44.171
			c16.301,39.48-8.578,78.417-30.739,109.785C48.769,287.956,50.339,290.733,49.566,291.827L49.566,291.827L49.566,291.827z"/>
	</g>
</g>
<circle fill="#FFFFFF" cx="153.503" cy="311.33" r="3.503"/>
<circle fill="none" stroke="#FFFFFF" stroke-width="3" stroke-miterlimit="10" cx="153.503" cy="311.33" r="7.625"/>
</svg>
