<?xml version="1.0" encoding="utf-8"?>
<!-- Generator: Adobe Illustrator 17.0.0, SVG Export Plug-In . SVG Version: 6.00 Build 0)  -->
<!DOCTYPE svg PUBLIC "-//W3C//DTD SVG 1.1//EN" "http://www.w3.org/Graphics/SVG/1.1/DTD/svg11.dtd">
<svg version="1.1" xmlns="http://www.w3.org/2000/svg" xmlns:xlink="http://www.w3.org/1999/xlink" x="0px" y="0px" width="246px"
	 height="238px" viewBox="173.14 301.445 246 238" enable-background="new 173.14 301.445 246 238" xml:space="preserve">
<g id="Calque_2_1_" display="none">
	<rect x="99.14" y="286.445" display="inline" fill="#21211C" width="395" height="289"/>
</g>
<g id="Calque_1">
	<g id="Calque_1_2_" display="none">
		<g id="Calque_1_1_" display="inline">
			<g>
				<g>
					<path fill="#FFFFFF" d="M389.115,418.818c-0.37,47.985-39.995,87.662-88.136,87.291c-48.286-0.373-85.867-42.45-84.77-89.833
						c1.086-46.914,41.608-84.853,88.093-84.495C351.475,332.145,388.757,372.461,389.115,418.818
						c0.017,2.148,4.918,2.782,4.899,0.254c-0.343-44.47-33.428-82.503-77.222-89.646c-43.687-7.126-86.733,19.101-100.972,60.825
						c-14.472,42.406,6.362,89.139,45.508,109.43c39.416,20.431,89.041,8.09,115.317-27.213
						c11.455-15.39,17.222-34.31,17.369-53.396C394.03,416.93,389.134,416.287,389.115,418.818z"/>
				</g>
			</g>
			<g>
				<g>
					<path fill="#FFFFFF" d="M344.845,418.052c-0.345,22.563-17.253,41.254-39.726,43.665c-24.696,2.65-44.319-18.038-44.684-41.88
						c-0.344-22.528,17.771-41.309,39.726-43.665C324.857,373.522,344.48,394.21,344.845,418.052
						c0.023,1.517,4.539,3.36,4.515,1.785c-0.314-20.562-14.333-38.883-34.09-44.745c-20.716-6.146-42.766,2.184-53.651,20.976
						c-10.887,18.794-5.397,42.661,10.39,56.726c15.515,13.823,38.902,15.946,56.532,5.035c13.077-8.093,20.587-22.82,20.819-37.992
						C349.382,418.335,344.869,416.446,344.845,418.052z"/>
				</g>
			</g>
		</g>
	</g>
	<g id="Calque_3" display="none">
	</g>
	<g id="Calque_2">
		<circle fill="none" cx="301.616" cy="419.7" r="54.985"/>
		<text transform="matrix(0.0399 -0.9992 0.9992 0.0399 246.257 426.7794)"><tspan x="0" y="0" fill="#FFFFFF" font-family="'OpenSans-Light'" font-size="32">P</tspan><tspan x="17.528" y="-0.217" fill="#FFFFFF" font-family="'OpenSans-Light'" font-size="32" rotate="18.34">R</tspan><tspan x="34.606" y="4.677" fill="#FFFFFF" font-family="'OpenSans-Light'" font-size="32" rotate="39.227">O</tspan><tspan x="52.027" y="20.154" fill="#FFFFFF" font-family="'OpenSans-Light'" font-size="32" rotate="54.882">J</tspan><tspan x="56.666" y="25.681" fill="#FFFFFF" font-family="'OpenSans-Light'" font-size="32" rotate="67.419">E</tspan><tspan x="63.101" y="40.944" fill="#FFFFFF" font-family="'OpenSans-Light'" font-size="32" rotate="83.988">T</tspan><tspan x="64.412" y="56.861" fill="#FFFFFF" font-family="'OpenSans-Light'" font-size="32" rotate="96.229"> </tspan><tspan x="64.186" y="64.477" fill="#FFFFFF" font-family="'OpenSans-Light'" font-size="32" rotate="108.969">E</tspan><tspan x="59.469" y="80.259" fill="#FFFFFF" font-family="'OpenSans-Light'" font-size="32" rotate="128.565">N</tspan><tspan x="45.112" y="96.926" fill="#FFFFFF" font-family="'OpenSans-Light'" font-size="32" rotate="143.77"> </tspan><tspan x="39.519" y="102.011" fill="#FFFFFF" font-family="'OpenSans-Light'" font-size="32" rotate="157.552">C</tspan><tspan x="22.592" y="109.719" fill="#FFFFFF" font-family="'OpenSans-Light'" font-size="32" rotate="178.805">O</tspan><tspan x="-0.365" y="110.353" fill="#FFFFFF" font-family="'OpenSans-Light'" font-size="32" rotate="-158.232">U</tspan><tspan x="-20.43" y="102.215" fill="#FFFFFF" font-family="'OpenSans-Light'" font-size="32" rotate="-138.037">R</tspan><tspan x="-33.749" y="90.324" fill="#FFFFFF" font-family="'OpenSans-Light'" font-size="32" rotate="-120.389">S</tspan><tspan x="-41.78" y="75.753" fill="#FFFFFF" font-family="'OpenSans-Light'" font-size="32" rotate="-108.095">.</tspan><tspan x="-44.058" y="68.846" fill="#FFFFFF" font-family="'OpenSans-Light'" font-size="32" rotate="-100.568">.</tspan><tspan x="-45.414" y="61.712" fill="#FFFFFF" font-family="'OpenSans-Light'" font-size="32" rotate="-93.114">.</tspan></text>
		
			<text transform="matrix(0.3362 -0.9418 0.9418 0.3362 359.2335 405.567)" fill="#FFFFFF" font-family="'CourierNewPS-BoldMT'" font-size="32.1"> </text>
	</g>
</g>
<g id="Calque_4">
	<g>
		<g>
			<path fill="#FFFFFF" d="M343.569,418.576c-0.199,24.361-21.281,43.935-45.728,41.326c-23.099-2.465-39.469-24.364-36.668-47.096
				c1.244-10.092,6.46-19.386,14.038-26.082c8.591-7.591,19.99-10.943,31.331-9.733
				C327.525,379.231,343.399,397.733,343.569,418.576c-0.001-0.076,0.967-0.168,0.966-0.259
				c-0.19-23.224-19.342-42.045-42.56-41.855c-20.312,0.166-38.105,15.251-41.569,35.257c-3.957,22.855,12.455,44.719,35.116,48.264
				c20.099,3.144,40.223-9.159,46.836-28.309c1.482-4.29,2.139-8.83,2.176-13.357C344.534,418.399,343.57,418.48,343.569,418.576z"
				/>
		</g>
	</g>
	<g>
		<g>
			<path fill="#FFFFFF" d="M391.291,417.576c-0.087,22.605-8.631,44.375-23.965,60.987c-16.431,17.8-39.751,28.054-63.946,28.334
				c-22.553,0.261-44.568-8.376-61.211-23.518c-16.533-15.041-26.776-36.153-28.751-58.369
				c-2.011-22.612,4.961-45.389,18.946-63.209c14.802-18.862,37.104-31.113,60.961-33.42c22.608-2.186,45.453,4.618,63.384,18.48
				c17.572,13.584,29.477,33.674,33.297,55.51C390.883,407.389,391.271,412.485,391.291,417.576c0-0.078,0.966-0.167,0.966-0.259
				c-0.087-22.605-8.631-44.375-23.965-60.987c-15.171-16.435-36.371-26.52-58.617-28.326c-20.18-1.638-40.795,3.854-57.644,15.014
				c-18.443,12.215-31.77,31.307-37.22,52.702c-5.641,22.144-2.271,46.047,8.887,65.927c10.801,19.243,28.828,33.91,49.695,40.944
				c19.485,6.568,40.869,5.835,60.121-1.142c20.738-7.516,38.096-22.96,48.436-42.378c6.825-12.816,10.249-27.261,10.305-41.754
				C392.256,417.398,391.291,417.482,391.291,417.576z"/>
		</g>
	</g>
</g>
</svg>
